<svg width="221" height="189" viewBox="0 0 221 189" fill="none" xmlns="http://www.w3.org/2000/svg">
<g filter="url(#filter0_d)">
<rect x="15" y="15" width="191" height="159" rx="8" fill="white"/>
</g>
<path d="M76.7447 89.0582C67.7447 89.5582 60.7447 83.5582 61.3114 74.1327L46.2447 73.0582C44.7448 89.5582 56.7447 105.558 78.7446 104.058L76.7447 89.0582Z" fill="#05647A"/>
<path d="M61.2448 74.5582C61.8274 70.6742 63.0797 68.4176 64.2448 67.0582L53.2448 57.5582C48.3898 62.8015 46.8274 68.98 46.2448 73.0582L61.2448 74.5582Z" fill="#6DB8BB"/>
<path d="M64.2448 67.0582C67.067 63.7154 70.7448 61.9566 74.8268 61.9566L74.8268 48.0582C67.2448 48.0582 59.7448 50.5582 53.2448 57.5582L64.2448 67.0582Z" fill="#E0E2D5"/>
<path d="M74.8271 61.9593C92.7448 63.5582 91.7448 86.0582 76.7448 89.0582L78.5167 104.104C116.245 93.5582 105.245 49.3293 74.8271 48.0582L74.8271 61.9593Z" fill="#FEA02F"/>
<rect x="127" y="130" width="5" height="5" fill="#FEA02F"/>
<rect x="127" y="143" width="5" height="5" fill="#05647A"/>
<rect x="48" y="130" width="5" height="5" fill="#E0E2D5"/>
<rect x="48" y="143" width="5" height="5" fill="#6DB8BB"/>
<path d="M64.7935 73.2082V74.1332H66.4135V74.7832H64.7935V76.0582H63.9835V72.5582H66.6285V73.2082H64.7935ZM68.3335 76.0982C68.0501 76.0982 67.7951 76.0398 67.5685 75.9232C67.3451 75.8032 67.1701 75.6382 67.0435 75.4282C66.9168 75.2182 66.8535 74.9798 66.8535 74.7132C66.8535 74.4465 66.9168 74.2082 67.0435 73.9982C67.1701 73.7882 67.3451 73.6248 67.5685 73.5082C67.7951 73.3882 68.0501 73.3282 68.3335 73.3282C68.6168 73.3282 68.8701 73.3882 69.0935 73.5082C69.3168 73.6248 69.4918 73.7882 69.6185 73.9982C69.7451 74.2082 69.8085 74.4465 69.8085 74.7132C69.8085 74.9798 69.7451 75.2182 69.6185 75.4282C69.4918 75.6382 69.3168 75.8032 69.0935 75.9232C68.8701 76.0398 68.6168 76.0982 68.3335 76.0982ZM68.3335 75.4582C68.5335 75.4582 68.6968 75.3915 68.8235 75.2582C68.9535 75.1215 69.0185 74.9398 69.0185 74.7132C69.0185 74.4865 68.9535 74.3065 68.8235 74.1732C68.6968 74.0365 68.5335 73.9682 68.3335 73.9682C68.1335 73.9682 67.9685 74.0365 67.8385 74.1732C67.7085 74.3065 67.6435 74.4865 67.6435 74.7132C67.6435 74.9398 67.7085 75.1215 67.8385 75.2582C67.9685 75.3915 68.1335 75.4582 68.3335 75.4582ZM71.6098 76.0982C71.3265 76.0982 71.0715 76.0398 70.8448 75.9232C70.6215 75.8032 70.4465 75.6382 70.3198 75.4282C70.1932 75.2182 70.1298 74.9798 70.1298 74.7132C70.1298 74.4465 70.1932 74.2082 70.3198 73.9982C70.4465 73.7882 70.6215 73.6248 70.8448 73.5082C71.0715 73.3882 71.3265 73.3282 71.6098 73.3282C71.8932 73.3282 72.1465 73.3882 72.3698 73.5082C72.5932 73.6248 72.7682 73.7882 72.8948 73.9982C73.0215 74.2082 73.0848 74.4465 73.0848 74.7132C73.0848 74.9798 73.0215 75.2182 72.8948 75.4282C72.7682 75.6382 72.5932 75.8032 72.3698 75.9232C72.1465 76.0398 71.8932 76.0982 71.6098 76.0982ZM71.6098 75.4582C71.8098 75.4582 71.9732 75.3915 72.0998 75.2582C72.2298 75.1215 72.2948 74.9398 72.2948 74.7132C72.2948 74.4865 72.2298 74.3065 72.0998 74.1732C71.9732 74.0365 71.8098 73.9682 71.6098 73.9682C71.4098 73.9682 71.2448 74.0365 71.1148 74.1732C70.9848 74.3065 70.9198 74.4865 70.9198 74.7132C70.9198 74.9398 70.9848 75.1215 71.1148 75.2582C71.2448 75.3915 71.4098 75.4582 71.6098 75.4582ZM75.3412 75.9282C75.2645 75.9848 75.1695 76.0282 75.0562 76.0582C74.9462 76.0848 74.8295 76.0982 74.7062 76.0982C74.3862 76.0982 74.1379 76.0165 73.9612 75.8532C73.7879 75.6898 73.7012 75.4498 73.7012 75.1332V74.0282H73.2862V73.4282H73.7012V72.7732H74.4812V73.4282H75.1512V74.0282H74.4812V75.1232C74.4812 75.2365 74.5095 75.3248 74.5662 75.3882C74.6262 75.4482 74.7095 75.4782 74.8162 75.4782C74.9395 75.4782 75.0445 75.4448 75.1312 75.3782L75.3412 75.9282ZM77.3691 73.3282C77.6191 73.3282 77.8457 73.3865 78.0491 73.5032C78.2557 73.6165 78.4174 73.7782 78.5341 73.9882C78.6507 74.1948 78.7091 74.4365 78.7091 74.7132C78.7091 74.9898 78.6507 75.2332 78.5341 75.4432C78.4174 75.6498 78.2557 75.8115 78.0491 75.9282C77.8457 76.0415 77.6191 76.0982 77.3691 76.0982C76.9991 76.0982 76.7174 75.9815 76.5241 75.7482V76.0582H75.7791V72.3482H76.5591V73.6532C76.7557 73.4365 77.0257 73.3282 77.3691 73.3282ZM77.2341 75.4582C77.4341 75.4582 77.5974 75.3915 77.7241 75.2582C77.8541 75.1215 77.9191 74.9398 77.9191 74.7132C77.9191 74.4865 77.8541 74.3065 77.7241 74.1732C77.5974 74.0365 77.4341 73.9682 77.2341 73.9682C77.0341 73.9682 76.8691 74.0365 76.7391 74.1732C76.6124 74.3065 76.5491 74.4865 76.5491 74.7132C76.5491 74.9398 76.6124 75.1215 76.7391 75.2582C76.8691 75.3915 77.0341 75.4582 77.2341 75.4582ZM80.2723 73.3282C80.6889 73.3282 81.0089 73.4282 81.2323 73.6282C81.4556 73.8248 81.5673 74.1232 81.5673 74.5232V76.0582H80.8373V75.7232C80.6906 75.9732 80.4173 76.0982 80.0173 76.0982C79.8106 76.0982 79.6306 76.0632 79.4773 75.9932C79.3273 75.9232 79.2123 75.8265 79.1323 75.7032C79.0523 75.5798 79.0123 75.4398 79.0123 75.2832C79.0123 75.0332 79.1056 74.8365 79.2923 74.6932C79.4823 74.5498 79.7739 74.4782 80.1673 74.4782H80.7873C80.7873 74.3082 80.7356 74.1782 80.6323 74.0882C80.5289 73.9948 80.3739 73.9482 80.1673 73.9482C80.0239 73.9482 79.8823 73.9715 79.7423 74.0182C79.6056 74.0615 79.4889 74.1215 79.3923 74.1982L79.1123 73.6532C79.2589 73.5498 79.4339 73.4698 79.6373 73.4132C79.8439 73.3565 80.0556 73.3282 80.2723 73.3282ZM80.2123 75.5732C80.3456 75.5732 80.4639 75.5432 80.5673 75.4832C80.6706 75.4198 80.7439 75.3282 80.7873 75.2082V74.9332H80.2523C79.9323 74.9332 79.7723 75.0382 79.7723 75.2482C79.7723 75.3482 79.8106 75.4282 79.8873 75.4882C79.9673 75.5448 80.0756 75.5732 80.2123 75.5732ZM82.2732 72.3482H83.0532V76.0582H82.2732V72.3482ZM83.7771 72.3482H84.5571V76.0582H83.7771V72.3482ZM68.2705 79.2182H67.1505V78.5582H70.2005V79.2182H69.0805V82.0582H68.2705V79.2182ZM72.9429 80.7232C72.9429 80.7332 72.9379 80.8032 72.9279 80.9332H70.8929C70.9295 81.0998 71.0162 81.2315 71.1529 81.3282C71.2895 81.4248 71.4595 81.4732 71.6629 81.4732C71.8029 81.4732 71.9262 81.4532 72.0329 81.4132C72.1429 81.3698 72.2445 81.3032 72.3379 81.2132L72.7529 81.6632C72.4995 81.9532 72.1295 82.0982 71.6429 82.0982C71.3395 82.0982 71.0712 82.0398 70.8379 81.9232C70.6045 81.8032 70.4245 81.6382 70.2979 81.4282C70.1712 81.2182 70.1079 80.9798 70.1079 80.7132C70.1079 80.4498 70.1695 80.2132 70.2929 80.0032C70.4195 79.7898 70.5912 79.6248 70.8079 79.5082C71.0279 79.3882 71.2729 79.3282 71.5429 79.3282C71.8062 79.3282 72.0445 79.3848 72.2579 79.4982C72.4712 79.6115 72.6379 79.7748 72.7579 79.9882C72.8812 80.1982 72.9429 80.4432 72.9429 80.7232ZM71.5479 79.9182C71.3712 79.9182 71.2229 79.9682 71.1029 80.0682C70.9829 80.1682 70.9095 80.3048 70.8829 80.4782H72.2079C72.1812 80.3082 72.1079 80.1732 71.9879 80.0732C71.8679 79.9698 71.7212 79.9182 71.5479 79.9182ZM74.4739 79.3282C74.8906 79.3282 75.2106 79.4282 75.4339 79.6282C75.6573 79.8248 75.7689 80.1232 75.7689 80.5232V82.0582H75.0389V81.7232C74.8923 81.9732 74.6189 82.0982 74.2189 82.0982C74.0123 82.0982 73.8323 82.0632 73.6789 81.9932C73.5289 81.9232 73.4139 81.8265 73.3339 81.7032C73.2539 81.5798 73.2139 81.4398 73.2139 81.2832C73.2139 81.0332 73.3073 80.8365 73.4939 80.6932C73.6839 80.5498 73.9756 80.4782 74.3689 80.4782H74.9889C74.9889 80.3082 74.9373 80.1782 74.8339 80.0882C74.7306 79.9948 74.5756 79.9482 74.3689 79.9482C74.2256 79.9482 74.0839 79.9715 73.9439 80.0182C73.8073 80.0615 73.6906 80.1215 73.5939 80.1982L73.3139 79.6532C73.4606 79.5498 73.6356 79.4698 73.8389 79.4132C74.0456 79.3565 74.2573 79.3282 74.4739 79.3282ZM74.4139 81.5732C74.5473 81.5732 74.6656 81.5432 74.7689 81.4832C74.8723 81.4198 74.9456 81.3282 74.9889 81.2082V80.9332H74.4539C74.1339 80.9332 73.9739 81.0382 73.9739 81.2482C73.9739 81.3482 74.0123 81.4282 74.0889 81.4882C74.1689 81.5448 74.2773 81.5732 74.4139 81.5732ZM79.9199 79.3282C80.2565 79.3282 80.5232 79.4282 80.7199 79.6282C80.9199 79.8248 81.0199 80.1215 81.0199 80.5182V82.0582H80.2399V80.6382C80.2399 80.4248 80.1949 80.2665 80.1049 80.1632C80.0182 80.0565 79.8932 80.0032 79.7299 80.0032C79.5465 80.0032 79.4015 80.0632 79.2949 80.1832C79.1882 80.2998 79.1349 80.4748 79.1349 80.7082V82.0582H78.3549V80.6382C78.3549 80.2148 78.1849 80.0032 77.8449 80.0032C77.6649 80.0032 77.5215 80.0632 77.4149 80.1832C77.3082 80.2998 77.2549 80.4748 77.2549 80.7082V82.0582H76.4749V79.3682H77.2199V79.6782C77.3199 79.5648 77.4415 79.4782 77.5849 79.4182C77.7315 79.3582 77.8915 79.3282 78.0649 79.3282C78.2549 79.3282 78.4265 79.3665 78.5799 79.4432C78.7332 79.5165 78.8565 79.6248 78.9499 79.7682C79.0599 79.6282 79.1982 79.5198 79.3649 79.4432C79.5349 79.3665 79.7199 79.3282 79.9199 79.3282Z" fill="#10375E"/>
<path d="M141.9 143.5C142.347 143.5 142.697 143.607 142.95 143.82C143.203 144.033 143.33 144.327 143.33 144.7C143.33 145.073 143.203 145.367 142.95 145.58C142.697 145.79 142.347 145.895 141.9 145.895H140.96V147H140.59V143.5H141.9ZM141.89 145.57C142.237 145.57 142.502 145.495 142.685 145.345C142.868 145.192 142.96 144.977 142.96 144.7C142.96 144.417 142.868 144.2 142.685 144.05C142.502 143.897 142.237 143.82 141.89 143.82H140.96V145.57H141.89ZM146.291 145.795H144.091C144.111 146.068 144.216 146.29 144.406 146.46C144.596 146.627 144.836 146.71 145.126 146.71C145.29 146.71 145.44 146.682 145.576 146.625C145.713 146.565 145.831 146.478 145.931 146.365L146.131 146.595C146.015 146.735 145.868 146.842 145.691 146.915C145.518 146.988 145.326 147.025 145.116 147.025C144.846 147.025 144.606 146.968 144.396 146.855C144.19 146.738 144.028 146.578 143.911 146.375C143.795 146.172 143.736 145.942 143.736 145.685C143.736 145.428 143.791 145.198 143.901 144.995C144.015 144.792 144.168 144.633 144.361 144.52C144.558 144.407 144.778 144.35 145.021 144.35C145.265 144.35 145.483 144.407 145.676 144.52C145.87 144.633 146.021 144.792 146.131 144.995C146.241 145.195 146.296 145.425 146.296 145.685L146.291 145.795ZM145.021 144.655C144.768 144.655 144.555 144.737 144.381 144.9C144.211 145.06 144.115 145.27 144.091 145.53H145.956C145.933 145.27 145.835 145.06 145.661 144.9C145.491 144.737 145.278 144.655 145.021 144.655ZM147.914 144.35C148.257 144.35 148.521 144.437 148.704 144.61C148.887 144.78 148.979 145.033 148.979 145.37V147H148.639V146.59C148.559 146.727 148.441 146.833 148.284 146.91C148.131 146.987 147.947 147.025 147.734 147.025C147.441 147.025 147.207 146.955 147.034 146.815C146.861 146.675 146.774 146.49 146.774 146.26C146.774 146.037 146.854 145.857 147.014 145.72C147.177 145.583 147.436 145.515 147.789 145.515H148.624V145.355C148.624 145.128 148.561 144.957 148.434 144.84C148.307 144.72 148.122 144.66 147.879 144.66C147.712 144.66 147.552 144.688 147.399 144.745C147.246 144.798 147.114 144.873 147.004 144.97L146.844 144.705C146.977 144.592 147.137 144.505 147.324 144.445C147.511 144.382 147.707 144.35 147.914 144.35ZM147.789 146.745C147.989 146.745 148.161 146.7 148.304 146.61C148.447 146.517 148.554 146.383 148.624 146.21V145.78H147.799C147.349 145.78 147.124 145.937 147.124 146.25C147.124 146.403 147.182 146.525 147.299 146.615C147.416 146.702 147.579 146.745 147.789 146.745ZM152.074 144.37V147H151.719V144.685H150.459L150.424 145.335C150.397 145.882 150.334 146.302 150.234 146.595C150.134 146.888 149.956 147.035 149.699 147.035C149.629 147.035 149.544 147.022 149.444 146.995L149.469 146.69C149.529 146.703 149.571 146.71 149.594 146.71C149.731 146.71 149.834 146.647 149.904 146.52C149.974 146.393 150.021 146.237 150.044 146.05C150.067 145.863 150.087 145.617 150.104 145.31L150.149 144.37H152.074ZM158.112 143.5V147H157.757V144.2L156.382 146.555H156.207L154.832 144.215V147H154.477V143.5H154.782L156.302 146.095L157.807 143.5H158.112ZM160.111 144.35C160.455 144.35 160.718 144.437 160.901 144.61C161.085 144.78 161.176 145.033 161.176 145.37V147H160.836V146.59C160.756 146.727 160.638 146.833 160.481 146.91C160.328 146.987 160.145 147.025 159.931 147.025C159.638 147.025 159.405 146.955 159.231 146.815C159.058 146.675 158.971 146.49 158.971 146.26C158.971 146.037 159.051 145.857 159.211 145.72C159.375 145.583 159.633 145.515 159.986 145.515H160.821V145.355C160.821 145.128 160.758 144.957 160.631 144.84C160.505 144.72 160.32 144.66 160.076 144.66C159.91 144.66 159.75 144.688 159.596 144.745C159.443 144.798 159.311 144.873 159.201 144.97L159.041 144.705C159.175 144.592 159.335 144.505 159.521 144.445C159.708 144.382 159.905 144.35 160.111 144.35ZM159.986 146.745C160.186 146.745 160.358 146.7 160.501 146.61C160.645 146.517 160.751 146.383 160.821 146.21V145.78H159.996C159.546 145.78 159.321 145.937 159.321 146.25C159.321 146.403 159.38 146.525 159.496 146.615C159.613 146.702 159.776 146.745 159.986 146.745ZM164.686 146.69V147.635H164.351V147H161.996V147.635H161.661V146.69H161.811C161.988 146.68 162.108 146.55 162.171 146.3C162.235 146.05 162.278 145.7 162.301 145.25L162.336 144.37H164.276V146.69H164.686ZM162.626 145.27C162.61 145.643 162.578 145.952 162.531 146.195C162.485 146.435 162.401 146.6 162.281 146.69H163.921V144.685H162.656L162.626 145.27ZM166.733 144.35C166.98 144.35 167.203 144.407 167.403 144.52C167.603 144.63 167.76 144.787 167.873 144.99C167.986 145.193 168.043 145.425 168.043 145.685C168.043 145.948 167.986 146.182 167.873 146.385C167.76 146.588 167.603 146.747 167.403 146.86C167.206 146.97 166.983 147.025 166.733 147.025C166.52 147.025 166.326 146.982 166.153 146.895C165.983 146.805 165.843 146.675 165.733 146.505V147.97H165.378V144.37H165.718V144.89C165.825 144.717 165.965 144.583 166.138 144.49C166.315 144.397 166.513 144.35 166.733 144.35ZM166.708 146.71C166.891 146.71 167.058 146.668 167.208 146.585C167.358 146.498 167.475 146.377 167.558 146.22C167.645 146.063 167.688 145.885 167.688 145.685C167.688 145.485 167.645 145.308 167.558 145.155C167.475 144.998 167.358 144.877 167.208 144.79C167.058 144.703 166.891 144.66 166.708 144.66C166.521 144.66 166.353 144.703 166.203 144.79C166.056 144.877 165.94 144.998 165.853 145.155C165.77 145.308 165.728 145.485 165.728 145.685C165.728 145.885 165.77 146.063 165.853 146.22C165.94 146.377 166.056 146.498 166.203 146.585C166.353 146.668 166.521 146.71 166.708 146.71ZM168.806 144.37H169.161V146.46L170.916 144.37H171.231V147H170.876V144.91L169.126 147H168.806V144.37ZM174.813 146.69V147.635H174.478V147H172.123V147.635H171.788V146.69H171.938C172.115 146.68 172.235 146.55 172.298 146.3C172.361 146.05 172.405 145.7 172.428 145.25L172.463 144.37H174.403V146.69H174.813ZM172.753 145.27C172.736 145.643 172.705 145.952 172.658 146.195C172.611 146.435 172.528 146.6 172.408 146.69H174.048V144.685H172.783L172.753 145.27Z" fill="#10375E"/>
<path d="M143.1 134.065H141.15L140.73 135H140.345L141.945 131.5H142.31L143.91 135H143.52L143.1 134.065ZM142.965 133.765L142.125 131.885L141.285 133.765H142.965ZM145.85 132.35C146.097 132.35 146.32 132.407 146.52 132.52C146.72 132.63 146.877 132.787 146.99 132.99C147.104 133.193 147.16 133.425 147.16 133.685C147.16 133.948 147.104 134.182 146.99 134.385C146.877 134.588 146.72 134.747 146.52 134.86C146.324 134.97 146.1 135.025 145.85 135.025C145.637 135.025 145.444 134.982 145.27 134.895C145.1 134.805 144.96 134.675 144.85 134.505V135.97H144.495V132.37H144.835V132.89C144.942 132.717 145.082 132.583 145.255 132.49C145.432 132.397 145.63 132.35 145.85 132.35ZM145.825 134.71C146.009 134.71 146.175 134.668 146.325 134.585C146.475 134.498 146.592 134.377 146.675 134.22C146.762 134.063 146.805 133.885 146.805 133.685C146.805 133.485 146.762 133.308 146.675 133.155C146.592 132.998 146.475 132.877 146.325 132.79C146.175 132.703 146.009 132.66 145.825 132.66C145.639 132.66 145.47 132.703 145.32 132.79C145.174 132.877 145.057 132.998 144.97 133.155C144.887 133.308 144.845 133.485 144.845 133.685C144.845 133.885 144.887 134.063 144.97 134.22C145.057 134.377 145.174 134.498 145.32 134.585C145.47 134.668 145.639 134.71 145.825 134.71ZM149.023 135.025C148.763 135.025 148.53 134.968 148.323 134.855C148.12 134.742 147.96 134.583 147.843 134.38C147.726 134.173 147.668 133.942 147.668 133.685C147.668 133.428 147.726 133.198 147.843 132.995C147.96 132.792 148.12 132.633 148.323 132.52C148.53 132.407 148.763 132.35 149.023 132.35C149.25 132.35 149.451 132.395 149.628 132.485C149.808 132.572 149.95 132.7 150.053 132.87L149.788 133.05C149.701 132.92 149.591 132.823 149.458 132.76C149.325 132.693 149.18 132.66 149.023 132.66C148.833 132.66 148.661 132.703 148.508 132.79C148.358 132.873 148.24 132.993 148.153 133.15C148.07 133.307 148.028 133.485 148.028 133.685C148.028 133.888 148.07 134.068 148.153 134.225C148.24 134.378 148.358 134.498 148.508 134.585C148.661 134.668 148.833 134.71 149.023 134.71C149.18 134.71 149.325 134.678 149.458 134.615C149.591 134.552 149.701 134.455 149.788 134.325L150.053 134.505C149.95 134.675 149.808 134.805 149.628 134.895C149.448 134.982 149.246 135.025 149.023 135.025ZM152.996 133.795H150.796C150.816 134.068 150.921 134.29 151.111 134.46C151.301 134.627 151.541 134.71 151.831 134.71C151.995 134.71 152.145 134.682 152.281 134.625C152.418 134.565 152.536 134.478 152.636 134.365L152.836 134.595C152.72 134.735 152.573 134.842 152.396 134.915C152.223 134.988 152.031 135.025 151.821 135.025C151.551 135.025 151.311 134.968 151.101 134.855C150.895 134.738 150.733 134.578 150.616 134.375C150.5 134.172 150.441 133.942 150.441 133.685C150.441 133.428 150.496 133.198 150.606 132.995C150.72 132.792 150.873 132.633 151.066 132.52C151.263 132.407 151.483 132.35 151.726 132.35C151.97 132.35 152.188 132.407 152.381 132.52C152.575 132.633 152.726 132.792 152.836 132.995C152.946 133.195 153.001 133.425 153.001 133.685L152.996 133.795ZM151.726 132.655C151.473 132.655 151.26 132.737 151.086 132.9C150.916 133.06 150.82 133.27 150.796 133.53H152.661C152.638 133.27 152.54 133.06 152.366 132.9C152.196 132.737 151.983 132.655 151.726 132.655ZM153.787 132.37H154.142V133.535H155.797V132.37H156.152V135H155.797V133.84H154.142V135H153.787V132.37ZM158.066 132.35C158.41 132.35 158.673 132.437 158.856 132.61C159.04 132.78 159.131 133.033 159.131 133.37V135H158.791V134.59C158.711 134.727 158.593 134.833 158.436 134.91C158.283 134.987 158.1 135.025 157.886 135.025C157.593 135.025 157.36 134.955 157.186 134.815C157.013 134.675 156.926 134.49 156.926 134.26C156.926 134.037 157.006 133.857 157.166 133.72C157.33 133.583 157.588 133.515 157.941 133.515H158.776V133.355C158.776 133.128 158.713 132.957 158.586 132.84C158.46 132.72 158.275 132.66 158.031 132.66C157.865 132.66 157.705 132.688 157.551 132.745C157.398 132.798 157.266 132.873 157.156 132.97L156.996 132.705C157.13 132.592 157.29 132.505 157.476 132.445C157.663 132.382 157.86 132.35 158.066 132.35ZM157.941 134.745C158.141 134.745 158.313 134.7 158.456 134.61C158.6 134.517 158.706 134.383 158.776 134.21V133.78H157.951C157.501 133.78 157.276 133.937 157.276 134.25C157.276 134.403 157.335 134.525 157.451 134.615C157.568 134.702 157.731 134.745 157.941 134.745ZM162.226 132.37V135H161.871V132.685H160.611L160.576 133.335C160.55 133.882 160.486 134.302 160.386 134.595C160.286 134.888 160.108 135.035 159.851 135.035C159.781 135.035 159.696 135.022 159.596 134.995L159.621 134.69C159.681 134.703 159.723 134.71 159.746 134.71C159.883 134.71 159.986 134.647 160.056 134.52C160.126 134.393 160.173 134.237 160.196 134.05C160.22 133.863 160.24 133.617 160.256 133.31L160.301 132.37H162.226Z" fill="#10375E"/>
<path d="M127.23 52.5V56H126.87V52.82H126.045V52.5H127.23ZM128.337 56.025C128.263 56.025 128.2 55.9983 128.147 55.945C128.097 55.8917 128.072 55.8267 128.072 55.75C128.072 55.6733 128.097 55.61 128.147 55.56C128.2 55.5067 128.263 55.48 128.337 55.48C128.41 55.48 128.473 55.5067 128.527 55.56C128.58 55.61 128.607 55.6733 128.607 55.75C128.607 55.8267 128.58 55.8917 128.527 55.945C128.473 55.9983 128.41 56.025 128.337 56.025ZM133.005 55.065H131.055L130.635 56H130.25L131.85 52.5H132.215L133.815 56H133.425L133.005 55.065ZM132.87 54.765L132.03 52.885L131.19 54.765H132.87ZM135.756 53.35C136.002 53.35 136.226 53.4067 136.426 53.52C136.626 53.63 136.782 53.7867 136.896 53.99C137.009 54.1933 137.066 54.425 137.066 54.685C137.066 54.9483 137.009 55.1817 136.896 55.385C136.782 55.5883 136.626 55.7467 136.426 55.86C136.229 55.97 136.006 56.025 135.756 56.025C135.542 56.025 135.349 55.9817 135.176 55.895C135.006 55.805 134.866 55.675 134.756 55.505V56.97H134.401V53.37H134.741V53.89C134.847 53.7167 134.987 53.5833 135.161 53.49C135.337 53.3967 135.536 53.35 135.756 53.35ZM135.731 55.71C135.914 55.71 136.081 55.6683 136.231 55.585C136.381 55.4983 136.497 55.3767 136.581 55.22C136.667 55.0633 136.711 54.885 136.711 54.685C136.711 54.485 136.667 54.3083 136.581 54.155C136.497 53.9983 136.381 53.8767 136.231 53.79C136.081 53.7033 135.914 53.66 135.731 53.66C135.544 53.66 135.376 53.7033 135.226 53.79C135.079 53.8767 134.962 53.9983 134.876 54.155C134.792 54.3083 134.751 54.485 134.751 54.685C134.751 54.885 134.792 55.0633 134.876 55.22C134.962 55.3767 135.079 55.4983 135.226 55.585C135.376 55.6683 135.544 55.71 135.731 55.71ZM138.928 56.025C138.668 56.025 138.435 55.9683 138.228 55.855C138.025 55.7417 137.865 55.5833 137.748 55.38C137.632 55.1733 137.573 54.9417 137.573 54.685C137.573 54.4283 137.632 54.1983 137.748 53.995C137.865 53.7917 138.025 53.6333 138.228 53.52C138.435 53.4067 138.668 53.35 138.928 53.35C139.155 53.35 139.357 53.395 139.533 53.485C139.713 53.5717 139.855 53.7 139.958 53.87L139.693 54.05C139.607 53.92 139.497 53.8233 139.363 53.76C139.23 53.6933 139.085 53.66 138.928 53.66C138.738 53.66 138.567 53.7033 138.413 53.79C138.263 53.8733 138.145 53.9933 138.058 54.15C137.975 54.3067 137.933 54.485 137.933 54.685C137.933 54.8883 137.975 55.0683 138.058 55.225C138.145 55.3783 138.263 55.4983 138.413 55.585C138.567 55.6683 138.738 55.71 138.928 55.71C139.085 55.71 139.23 55.6783 139.363 55.615C139.497 55.5517 139.607 55.455 139.693 55.325L139.958 55.505C139.855 55.675 139.713 55.805 139.533 55.895C139.353 55.9817 139.152 56.025 138.928 56.025ZM142.902 54.795H140.702C140.722 55.0683 140.827 55.29 141.017 55.46C141.207 55.6267 141.447 55.71 141.737 55.71C141.9 55.71 142.05 55.6817 142.187 55.625C142.323 55.565 142.442 55.4783 142.542 55.365L142.742 55.595C142.625 55.735 142.478 55.8417 142.302 55.915C142.128 55.9883 141.937 56.025 141.727 56.025C141.457 56.025 141.217 55.9683 141.007 55.855C140.8 55.7383 140.638 55.5783 140.522 55.375C140.405 55.1717 140.347 54.9417 140.347 54.685C140.347 54.4283 140.402 54.1983 140.512 53.995C140.625 53.7917 140.778 53.6333 140.972 53.52C141.168 53.4067 141.388 53.35 141.632 53.35C141.875 53.35 142.093 53.4067 142.287 53.52C142.48 53.6333 142.632 53.7917 142.742 53.995C142.852 54.195 142.907 54.425 142.907 54.685L142.902 54.795ZM141.632 53.655C141.378 53.655 141.165 53.7367 140.992 53.9C140.822 54.06 140.725 54.27 140.702 54.53H142.567C142.543 54.27 142.445 54.06 142.272 53.9C142.102 53.7367 141.888 53.655 141.632 53.655ZM143.693 53.37H144.048V54.535H145.703V53.37H146.058V56H145.703V54.84H144.048V56H143.693V53.37ZM147.972 53.35C148.315 53.35 148.578 53.4367 148.762 53.61C148.945 53.78 149.037 54.0333 149.037 54.37V56H148.697V55.59C148.617 55.7267 148.498 55.8333 148.342 55.91C148.188 55.9867 148.005 56.025 147.792 56.025C147.498 56.025 147.265 55.955 147.092 55.815C146.918 55.675 146.832 55.49 146.832 55.26C146.832 55.0367 146.912 54.8567 147.072 54.72C147.235 54.5833 147.493 54.515 147.847 54.515H148.682V54.355C148.682 54.1283 148.618 53.9567 148.492 53.84C148.365 53.72 148.18 53.66 147.937 53.66C147.77 53.66 147.61 53.6883 147.457 53.745C147.303 53.7983 147.172 53.8733 147.062 53.97L146.902 53.705C147.035 53.5917 147.195 53.505 147.382 53.445C147.568 53.3817 147.765 53.35 147.972 53.35ZM147.847 55.745C148.047 55.745 148.218 55.7 148.362 55.61C148.505 55.5167 148.612 55.3833 148.682 55.21V54.78H147.857C147.407 54.78 147.182 54.9367 147.182 55.25C147.182 55.4033 147.24 55.525 147.357 55.615C147.473 55.7017 147.637 55.745 147.847 55.745ZM152.132 53.37V56H151.777V53.685H150.517L150.482 54.335C150.455 54.8817 150.392 55.3017 150.292 55.595C150.192 55.8883 150.013 56.035 149.757 56.035C149.687 56.035 149.602 56.0217 149.502 55.995L149.527 55.69C149.587 55.7033 149.628 55.71 149.652 55.71C149.788 55.71 149.892 55.6467 149.962 55.52C150.032 55.3933 150.078 55.2367 150.102 55.05C150.125 54.8633 150.145 54.6167 150.162 54.31L150.207 53.37H152.132ZM157.179 55.08H156.479V56H156.119V55.08H154.144V54.82L155.999 52.5H156.399L154.609 54.76H156.129V53.95H156.479V54.76H157.179V55.08ZM159.564 54.165C159.784 54.2383 159.952 54.3483 160.069 54.495C160.189 54.6417 160.249 54.8183 160.249 55.025C160.249 55.2283 160.194 55.4067 160.084 55.56C159.974 55.71 159.815 55.8267 159.609 55.91C159.405 55.99 159.165 56.03 158.889 56.03C158.469 56.03 158.139 55.94 157.899 55.76C157.659 55.58 157.539 55.335 157.539 55.025C157.539 54.815 157.595 54.6383 157.709 54.495C157.825 54.3483 157.994 54.2383 158.214 54.165C158.034 54.095 157.897 53.995 157.804 53.865C157.71 53.7317 157.664 53.575 157.664 53.395C157.664 53.1117 157.774 52.8867 157.994 52.72C158.217 52.5533 158.515 52.47 158.889 52.47C159.135 52.47 159.35 52.5083 159.534 52.585C159.72 52.6583 159.865 52.765 159.969 52.905C160.072 53.045 160.124 53.2083 160.124 53.395C160.124 53.575 160.075 53.7317 159.979 53.865C159.882 53.995 159.744 54.095 159.564 54.165ZM158.024 53.405C158.024 53.5983 158.1 53.7517 158.254 53.865C158.407 53.9783 158.619 54.035 158.889 54.035C159.159 54.035 159.37 53.9783 159.524 53.865C159.68 53.7517 159.759 53.6 159.759 53.41C159.759 53.2133 159.679 53.0583 159.519 52.945C159.362 52.8317 159.152 52.775 158.889 52.775C158.622 52.775 158.41 52.8317 158.254 52.945C158.1 53.0583 158.024 53.2117 158.024 53.405ZM158.889 55.725C159.199 55.725 159.44 55.6617 159.614 55.535C159.79 55.4083 159.879 55.2367 159.879 55.02C159.879 54.8033 159.79 54.6333 159.614 54.51C159.44 54.3833 159.199 54.32 158.889 54.32C158.582 54.32 158.34 54.3833 158.164 54.51C157.99 54.6333 157.904 54.8033 157.904 55.02C157.904 55.24 157.99 55.4133 158.164 55.54C158.337 55.6633 158.579 55.725 158.889 55.725ZM161.071 55.48C161.148 55.48 161.211 55.5067 161.261 55.56C161.311 55.61 161.336 55.6733 161.336 55.75C161.336 55.79 161.329 55.8333 161.316 55.88C161.306 55.9267 161.289 55.98 161.266 56.04L161.056 56.73H160.816L160.986 56.005C160.933 55.9883 160.889 55.9583 160.856 55.915C160.823 55.8683 160.806 55.8133 160.806 55.75C160.806 55.6733 160.831 55.61 160.881 55.56C160.931 55.5067 160.994 55.48 161.071 55.48ZM163.252 53.905C163.482 53.905 163.685 53.9483 163.862 54.035C164.042 54.1217 164.182 54.245 164.282 54.405C164.382 54.5617 164.432 54.745 164.432 54.955C164.432 55.1683 164.38 55.3567 164.277 55.52C164.174 55.6833 164.03 55.81 163.847 55.9C163.667 55.9867 163.464 56.03 163.237 56.03C162.774 56.03 162.419 55.8783 162.172 55.575C161.925 55.2683 161.802 54.8367 161.802 54.28C161.802 53.89 161.869 53.56 162.002 53.29C162.135 53.02 162.322 52.8167 162.562 52.68C162.802 52.54 163.082 52.47 163.402 52.47C163.749 52.47 164.025 52.5333 164.232 52.66L164.087 52.95C163.92 52.84 163.694 52.785 163.407 52.785C163.02 52.785 162.717 52.9083 162.497 53.155C162.277 53.3983 162.167 53.7533 162.167 54.22C162.167 54.3033 162.172 54.3983 162.182 54.505C162.269 54.315 162.407 54.1683 162.597 54.065C162.787 53.9583 163.005 53.905 163.252 53.905ZM163.222 55.725C163.475 55.725 163.68 55.6567 163.837 55.52C163.997 55.38 164.077 55.195 164.077 54.965C164.077 54.735 163.997 54.5517 163.837 54.415C163.68 54.2783 163.467 54.21 163.197 54.21C163.02 54.21 162.864 54.2433 162.727 54.31C162.594 54.3767 162.489 54.4683 162.412 54.585C162.335 54.7017 162.297 54.8317 162.297 54.975C162.297 55.1083 162.332 55.2317 162.402 55.345C162.475 55.4583 162.582 55.55 162.722 55.62C162.862 55.69 163.029 55.725 163.222 55.725ZM165.491 54.375C165.255 54.375 165.063 54.2883 164.916 54.115C164.773 53.9383 164.701 53.7083 164.701 53.425C164.701 53.1417 164.773 52.9133 164.916 52.74C165.063 52.5633 165.255 52.475 165.491 52.475C165.725 52.475 165.915 52.5617 166.061 52.735C166.208 52.9083 166.281 53.1383 166.281 53.425C166.281 53.7117 166.208 53.9417 166.061 54.115C165.915 54.2883 165.725 54.375 165.491 54.375ZM167.611 52.5H167.906L165.516 56H165.221L167.611 52.5ZM165.491 54.15C165.655 54.15 165.785 54.0867 165.881 53.96C165.981 53.83 166.031 53.6517 166.031 53.425C166.031 53.1983 165.981 53.0217 165.881 52.895C165.785 52.765 165.655 52.7 165.491 52.7C165.325 52.7 165.193 52.765 165.096 52.895C165 53.025 164.951 53.2017 164.951 53.425C164.951 53.6483 165 53.825 165.096 53.955C165.193 54.085 165.325 54.15 165.491 54.15ZM167.636 56.025C167.403 56.025 167.213 55.9383 167.066 55.765C166.92 55.5883 166.846 55.3583 166.846 55.075C166.846 54.7917 166.92 54.5633 167.066 54.39C167.213 54.2133 167.403 54.125 167.636 54.125C167.873 54.125 168.063 54.2133 168.206 54.39C168.353 54.5633 168.426 54.7917 168.426 55.075C168.426 55.3583 168.353 55.5883 168.206 55.765C168.063 55.9383 167.873 56.025 167.636 56.025ZM167.636 55.8C167.803 55.8 167.935 55.735 168.031 55.605C168.128 55.475 168.176 55.2983 168.176 55.075C168.176 54.8517 168.128 54.675 168.031 54.545C167.935 54.415 167.803 54.35 167.636 54.35C167.473 54.35 167.341 54.415 167.241 54.545C167.145 54.6717 167.096 54.8483 167.096 55.075C167.096 55.3017 167.145 55.48 167.241 55.61C167.341 55.7367 167.473 55.8 167.636 55.8ZM128.65 67.68V68H126.195V67.745L127.65 66.32C127.833 66.14 127.957 65.985 128.02 65.855C128.087 65.7217 128.12 65.5883 128.12 65.455C128.12 65.2483 128.048 65.0883 127.905 64.975C127.765 64.8583 127.563 64.8 127.3 64.8C126.89 64.8 126.572 64.93 126.345 65.19L126.09 64.97C126.227 64.81 126.4 64.6867 126.61 64.6C126.823 64.5133 127.063 64.47 127.33 64.47C127.687 64.47 127.968 64.555 128.175 64.725C128.385 64.8917 128.49 65.1217 128.49 65.415C128.49 65.595 128.45 65.7683 128.37 65.935C128.29 66.1017 128.138 66.2933 127.915 66.51L126.725 67.68H128.65ZM129.421 68.025C129.347 68.025 129.284 67.9983 129.231 67.945C129.181 67.8917 129.156 67.8267 129.156 67.75C129.156 67.6733 129.181 67.61 129.231 67.56C129.284 67.5067 129.347 67.48 129.421 67.48C129.494 67.48 129.557 67.5067 129.611 67.56C129.664 67.61 129.691 67.6733 129.691 67.75C129.691 67.8267 129.664 67.8917 129.611 67.945C129.557 67.9983 129.494 68.025 129.421 68.025ZM133.159 64.5C133.605 64.5 133.955 64.6067 134.209 64.82C134.462 65.0333 134.589 65.3267 134.589 65.7C134.589 66.0733 134.462 66.3667 134.209 66.58C133.955 66.79 133.605 66.895 133.159 66.895H132.219V68H131.849V64.5H133.159ZM133.149 66.57C133.495 66.57 133.76 66.495 133.944 66.345C134.127 66.1917 134.219 65.9767 134.219 65.7C134.219 65.4167 134.127 65.2 133.944 65.05C133.76 64.8967 133.495 64.82 133.149 64.82H132.219V66.57H133.149ZM137.55 66.795H135.35C135.37 67.0683 135.475 67.29 135.665 67.46C135.855 67.6267 136.095 67.71 136.385 67.71C136.548 67.71 136.698 67.6817 136.835 67.625C136.972 67.565 137.09 67.4783 137.19 67.365L137.39 67.595C137.273 67.735 137.127 67.8417 136.95 67.915C136.777 67.9883 136.585 68.025 136.375 68.025C136.105 68.025 135.865 67.9683 135.655 67.855C135.448 67.7383 135.287 67.5783 135.17 67.375C135.053 67.1717 134.995 66.9417 134.995 66.685C134.995 66.4283 135.05 66.1983 135.16 65.995C135.273 65.7917 135.427 65.6333 135.62 65.52C135.817 65.4067 136.037 65.35 136.28 65.35C136.523 65.35 136.742 65.4067 136.935 65.52C137.128 65.6333 137.28 65.7917 137.39 65.995C137.5 66.195 137.555 66.425 137.555 66.685L137.55 66.795ZM136.28 65.655C136.027 65.655 135.813 65.7367 135.64 65.9C135.47 66.06 135.373 66.27 135.35 66.53H137.215C137.192 66.27 137.093 66.06 136.92 65.9C136.75 65.7367 136.537 65.655 136.28 65.655ZM139.173 65.35C139.516 65.35 139.779 65.4367 139.963 65.61C140.146 65.78 140.238 66.0333 140.238 66.37V68H139.898V67.59C139.818 67.7267 139.699 67.8333 139.543 67.91C139.389 67.9867 139.206 68.025 138.993 68.025C138.699 68.025 138.466 67.955 138.293 67.815C138.119 67.675 138.033 67.49 138.033 67.26C138.033 67.0367 138.113 66.8567 138.273 66.72C138.436 66.5833 138.694 66.515 139.048 66.515H139.883V66.355C139.883 66.1283 139.819 65.9567 139.693 65.84C139.566 65.72 139.381 65.66 139.138 65.66C138.971 65.66 138.811 65.6883 138.658 65.745C138.504 65.7983 138.373 65.8733 138.263 65.97L138.103 65.705C138.236 65.5917 138.396 65.505 138.583 65.445C138.769 65.3817 138.966 65.35 139.173 65.35ZM139.048 67.745C139.248 67.745 139.419 67.7 139.563 67.61C139.706 67.5167 139.813 67.3833 139.883 67.21V66.78H139.058C138.608 66.78 138.383 66.9367 138.383 67.25C138.383 67.4033 138.441 67.525 138.558 67.615C138.674 67.7017 138.838 67.745 139.048 67.745ZM143.333 65.37V68H142.978V65.685H141.718L141.683 66.335C141.656 66.8817 141.593 67.3017 141.493 67.595C141.393 67.8883 141.214 68.035 140.958 68.035C140.888 68.035 140.803 68.0217 140.703 67.995L140.728 67.69C140.788 67.7033 140.829 67.71 140.853 67.71C140.989 67.71 141.093 67.6467 141.163 67.52C141.233 67.3933 141.279 67.2367 141.303 67.05C141.326 66.8633 141.346 66.6167 141.363 66.31L141.408 65.37H143.333ZM149.371 64.5V68H149.016V65.2L147.641 67.555H147.466L146.091 65.215V68H145.736V64.5H146.041L147.561 67.095L149.066 64.5H149.371ZM151.37 65.35C151.713 65.35 151.977 65.4367 152.16 65.61C152.343 65.78 152.435 66.0333 152.435 66.37V68H152.095V67.59C152.015 67.7267 151.897 67.8333 151.74 67.91C151.587 67.9867 151.403 68.025 151.19 68.025C150.897 68.025 150.663 67.955 150.49 67.815C150.317 67.675 150.23 67.49 150.23 67.26C150.23 67.0367 150.31 66.8567 150.47 66.72C150.633 66.5833 150.892 66.515 151.245 66.515H152.08V66.355C152.08 66.1283 152.017 65.9567 151.89 65.84C151.763 65.72 151.578 65.66 151.335 65.66C151.168 65.66 151.008 65.6883 150.855 65.745C150.702 65.7983 150.57 65.8733 150.46 65.97L150.3 65.705C150.433 65.5917 150.593 65.505 150.78 65.445C150.967 65.3817 151.163 65.35 151.37 65.35ZM151.245 67.745C151.445 67.745 151.617 67.7 151.76 67.61C151.903 67.5167 152.01 67.3833 152.08 67.21V66.78H151.255C150.805 66.78 150.58 66.9367 150.58 67.25C150.58 67.4033 150.638 67.525 150.755 67.615C150.872 67.7017 151.035 67.745 151.245 67.745ZM155.945 67.69V68.635H155.61V68H153.255V68.635H152.92V67.69H153.07C153.247 67.68 153.367 67.55 153.43 67.3C153.493 67.05 153.537 66.7 153.56 66.25L153.595 65.37H155.535V67.69H155.945ZM153.885 66.27C153.868 66.6433 153.837 66.9517 153.79 67.195C153.743 67.435 153.66 67.6 153.54 67.69H155.18V65.685H153.915L153.885 66.27ZM157.992 65.35C158.239 65.35 158.462 65.4067 158.662 65.52C158.862 65.63 159.019 65.7867 159.132 65.99C159.245 66.1933 159.302 66.425 159.302 66.685C159.302 66.9483 159.245 67.1817 159.132 67.385C159.019 67.5883 158.862 67.7467 158.662 67.86C158.465 67.97 158.242 68.025 157.992 68.025C157.779 68.025 157.585 67.9817 157.412 67.895C157.242 67.805 157.102 67.675 156.992 67.505V68.97H156.637V65.37H156.977V65.89C157.084 65.7167 157.224 65.5833 157.397 65.49C157.574 65.3967 157.772 65.35 157.992 65.35ZM157.967 67.71C158.15 67.71 158.317 67.6683 158.467 67.585C158.617 67.4983 158.734 67.3767 158.817 67.22C158.904 67.0633 158.947 66.885 158.947 66.685C158.947 66.485 158.904 66.3083 158.817 66.155C158.734 65.9983 158.617 65.8767 158.467 65.79C158.317 65.7033 158.15 65.66 157.967 65.66C157.78 65.66 157.612 65.7033 157.462 65.79C157.315 65.8767 157.199 65.9983 157.112 66.155C157.029 66.3083 156.987 66.485 156.987 66.685C156.987 66.885 157.029 67.0633 157.112 67.22C157.199 67.3767 157.315 67.4983 157.462 67.585C157.612 67.6683 157.78 67.71 157.967 67.71ZM160.065 65.37H160.42V67.46L162.175 65.37H162.49V68H162.135V65.91L160.385 68H160.065V65.37ZM166.072 67.69V68.635H165.737V68H163.382V68.635H163.047V67.69H163.197C163.374 67.68 163.494 67.55 163.557 67.3C163.62 67.05 163.664 66.7 163.687 66.25L163.722 65.37H165.662V67.69H166.072ZM164.012 66.27C163.995 66.6433 163.964 66.9517 163.917 67.195C163.87 67.435 163.787 67.6 163.667 67.69H165.307V65.685H164.042L164.012 66.27ZM170.326 66C170.693 66.02 170.971 66.12 171.161 66.3C171.354 66.4767 171.451 66.7083 171.451 66.995C171.451 67.195 171.403 67.3733 171.306 67.53C171.209 67.6833 171.066 67.805 170.876 67.895C170.686 67.985 170.454 68.03 170.181 68.03C169.928 68.03 169.688 67.99 169.461 67.91C169.238 67.8267 169.058 67.7167 168.921 67.58L169.096 67.295C169.213 67.415 169.368 67.5133 169.561 67.59C169.754 67.6633 169.961 67.7 170.181 67.7C170.468 67.7 170.689 67.6383 170.846 67.515C171.003 67.3883 171.081 67.215 171.081 66.995C171.081 66.7783 171.003 66.6083 170.846 66.485C170.689 66.3617 170.453 66.3 170.136 66.3H169.886V66.035L170.856 64.82H169.066V64.5H171.316V64.755L170.326 66ZM172.928 64.5V68H172.568V64.82H171.743V64.5H172.928ZM174.04 67.48C174.117 67.48 174.18 67.5067 174.23 67.56C174.28 67.61 174.305 67.6733 174.305 67.75C174.305 67.79 174.298 67.8333 174.285 67.88C174.275 67.9267 174.258 67.98 174.235 68.04L174.025 68.73H173.785L173.955 68.005C173.902 67.9883 173.858 67.9583 173.825 67.915C173.792 67.8683 173.775 67.8133 173.775 67.75C173.775 67.6733 173.8 67.61 173.85 67.56C173.9 67.5067 173.963 67.48 174.04 67.48ZM177.736 67.08H177.036V68H176.676V67.08H174.701V66.82L176.556 64.5H176.956L175.166 66.76H176.686V65.95H177.036V66.76H177.736V67.08ZM178.655 66.375C178.419 66.375 178.227 66.2883 178.08 66.115C177.937 65.9383 177.865 65.7083 177.865 65.425C177.865 65.1417 177.937 64.9133 178.08 64.74C178.227 64.5633 178.419 64.475 178.655 64.475C178.889 64.475 179.079 64.5617 179.225 64.735C179.372 64.9083 179.445 65.1383 179.445 65.425C179.445 65.7117 179.372 65.9417 179.225 66.115C179.079 66.2883 178.889 66.375 178.655 66.375ZM180.775 64.5H181.07L178.68 68H178.385L180.775 64.5ZM178.655 66.15C178.819 66.15 178.949 66.0867 179.045 65.96C179.145 65.83 179.195 65.6517 179.195 65.425C179.195 65.1983 179.145 65.0217 179.045 64.895C178.949 64.765 178.819 64.7 178.655 64.7C178.489 64.7 178.357 64.765 178.26 64.895C178.164 65.025 178.115 65.2017 178.115 65.425C178.115 65.6483 178.164 65.825 178.26 65.955C178.357 66.085 178.489 66.15 178.655 66.15ZM180.8 68.025C180.567 68.025 180.377 67.9383 180.23 67.765C180.084 67.5883 180.01 67.3583 180.01 67.075C180.01 66.7917 180.084 66.5633 180.23 66.39C180.377 66.2133 180.567 66.125 180.8 66.125C181.037 66.125 181.227 66.2133 181.37 66.39C181.517 66.5633 181.59 66.7917 181.59 67.075C181.59 67.3583 181.517 67.5883 181.37 67.765C181.227 67.9383 181.037 68.025 180.8 68.025ZM180.8 67.8C180.967 67.8 181.099 67.735 181.195 67.605C181.292 67.475 181.34 67.2983 181.34 67.075C181.34 66.8517 181.292 66.675 181.195 66.545C181.099 66.415 180.967 66.35 180.8 66.35C180.637 66.35 180.505 66.415 180.405 66.545C180.309 66.6717 180.26 66.8483 180.26 67.075C180.26 67.3017 180.309 67.48 180.405 67.61C180.505 67.7367 180.637 67.8 180.8 67.8ZM127.45 78C127.817 78.02 128.095 78.12 128.285 78.3C128.478 78.4767 128.575 78.7083 128.575 78.995C128.575 79.195 128.527 79.3733 128.43 79.53C128.333 79.6833 128.19 79.805 128 79.895C127.81 79.985 127.578 80.03 127.305 80.03C127.052 80.03 126.812 79.99 126.585 79.91C126.362 79.8267 126.182 79.7167 126.045 79.58L126.22 79.295C126.337 79.415 126.492 79.5133 126.685 79.59C126.878 79.6633 127.085 79.7 127.305 79.7C127.592 79.7 127.813 79.6383 127.97 79.515C128.127 79.3883 128.205 79.215 128.205 78.995C128.205 78.7783 128.127 78.6083 127.97 78.485C127.813 78.3617 127.577 78.3 127.26 78.3H127.01V78.035L127.98 76.82H126.19V76.5H128.44V76.755L127.45 78ZM129.352 80.025C129.279 80.025 129.216 79.9983 129.162 79.945C129.112 79.8917 129.087 79.8267 129.087 79.75C129.087 79.6733 129.112 79.61 129.162 79.56C129.216 79.5067 129.279 79.48 129.352 79.48C129.426 79.48 129.489 79.5067 129.542 79.56C129.596 79.61 129.622 79.6733 129.622 79.75C129.622 79.8267 129.596 79.8917 129.542 79.945C129.489 79.9983 129.426 80.025 129.352 80.025ZM134.525 76.5V80H134.16V76.82H132.47L132.43 77.99C132.414 78.4733 132.374 78.8633 132.31 79.16C132.25 79.4533 132.157 79.6733 132.03 79.82C131.904 79.9633 131.735 80.035 131.525 80.035C131.435 80.035 131.342 80.0233 131.245 80L131.275 79.67C131.332 79.6833 131.387 79.69 131.44 79.69C131.587 79.69 131.705 79.6317 131.795 79.515C131.889 79.3983 131.959 79.2183 132.005 78.975C132.052 78.7283 132.084 78.4033 132.1 78L132.15 76.5H134.525ZM135.621 77.37H135.976V79.46L137.731 77.37H138.046V80H137.691V77.91L135.941 80H135.621V77.37ZM140.739 78.64C141.095 78.7233 141.274 78.9383 141.274 79.285C141.274 79.515 141.189 79.6917 141.019 79.815C140.849 79.9383 140.595 80 140.259 80H139.064V77.37H140.224C140.524 77.37 140.759 77.4283 140.929 77.545C141.099 77.6617 141.184 77.8283 141.184 78.045C141.184 78.1883 141.144 78.3117 141.064 78.415C140.987 78.515 140.879 78.59 140.739 78.64ZM139.409 78.54H140.199C140.402 78.54 140.557 78.5017 140.664 78.425C140.774 78.3483 140.829 78.2367 140.829 78.09C140.829 77.9433 140.774 77.8333 140.664 77.76C140.557 77.6867 140.402 77.65 140.199 77.65H139.409V78.54ZM140.244 79.72C140.47 79.72 140.64 79.6833 140.754 79.61C140.867 79.5367 140.924 79.4217 140.924 79.265C140.924 79.1083 140.872 78.9933 140.769 78.92C140.665 78.8433 140.502 78.805 140.279 78.805H139.409V79.72H140.244ZM144.406 78.795H142.206C142.226 79.0683 142.331 79.29 142.521 79.46C142.711 79.6267 142.951 79.71 143.241 79.71C143.404 79.71 143.554 79.6817 143.691 79.625C143.827 79.565 143.946 79.4783 144.046 79.365L144.246 79.595C144.129 79.735 143.982 79.8417 143.806 79.915C143.632 79.9883 143.441 80.025 143.231 80.025C142.961 80.025 142.721 79.9683 142.511 79.855C142.304 79.7383 142.142 79.5783 142.026 79.375C141.909 79.1717 141.851 78.9417 141.851 78.685C141.851 78.4283 141.906 78.1983 142.016 77.995C142.129 77.7917 142.282 77.6333 142.476 77.52C142.672 77.4067 142.892 77.35 143.136 77.35C143.379 77.35 143.597 77.4067 143.791 77.52C143.984 77.6333 144.136 77.7917 144.246 77.995C144.356 78.195 144.411 78.425 144.411 78.685L144.406 78.795ZM143.136 77.655C142.882 77.655 142.669 77.7367 142.496 77.9C142.326 78.06 142.229 78.27 142.206 78.53H144.071C144.047 78.27 143.949 78.06 143.776 77.9C143.606 77.7367 143.392 77.655 143.136 77.655ZM146.551 77.35C146.798 77.35 147.021 77.4067 147.221 77.52C147.421 77.63 147.578 77.7867 147.691 77.99C147.805 78.1933 147.861 78.425 147.861 78.685C147.861 78.9483 147.805 79.1817 147.691 79.385C147.578 79.5883 147.421 79.7467 147.221 79.86C147.025 79.97 146.801 80.025 146.551 80.025C146.338 80.025 146.145 79.9817 145.971 79.895C145.801 79.805 145.661 79.675 145.551 79.505V80.97H145.196V77.37H145.536V77.89C145.643 77.7167 145.783 77.5833 145.956 77.49C146.133 77.3967 146.331 77.35 146.551 77.35ZM146.526 79.71C146.71 79.71 146.876 79.6683 147.026 79.585C147.176 79.4983 147.293 79.3767 147.376 79.22C147.463 79.0633 147.506 78.885 147.506 78.685C147.506 78.485 147.463 78.3083 147.376 78.155C147.293 77.9983 147.176 77.8767 147.026 77.79C146.876 77.7033 146.71 77.66 146.526 77.66C146.34 77.66 146.171 77.7033 146.021 77.79C145.875 77.8767 145.758 77.9983 145.671 78.155C145.588 78.3083 145.546 78.485 145.546 78.685C145.546 78.885 145.588 79.0633 145.671 79.22C145.758 79.3767 145.875 79.4983 146.021 79.585C146.171 79.6683 146.34 79.71 146.526 79.71ZM150.984 77.37V80H150.629V77.685H148.979V80H148.624V77.37H150.984ZM154.228 77.37L152.913 80.315C152.807 80.5617 152.683 80.7367 152.543 80.84C152.403 80.9433 152.235 80.995 152.038 80.995C151.912 80.995 151.793 80.975 151.683 80.935C151.573 80.895 151.478 80.835 151.398 80.755L151.563 80.49C151.697 80.6233 151.857 80.69 152.043 80.69C152.163 80.69 152.265 80.6567 152.348 80.59C152.435 80.5233 152.515 80.41 152.588 80.25L152.703 79.995L151.528 77.37H151.898L152.888 79.605L153.878 77.37H154.228ZM156.814 77.37V80H156.459V77.685H155.199L155.164 78.335C155.138 78.8817 155.074 79.3017 154.974 79.595C154.874 79.8883 154.696 80.035 154.439 80.035C154.369 80.035 154.284 80.0217 154.184 79.995L154.209 79.69C154.269 79.7033 154.311 79.71 154.334 79.71C154.471 79.71 154.574 79.6467 154.644 79.52C154.714 79.3933 154.761 79.2367 154.784 79.05C154.808 78.8633 154.828 78.6167 154.844 78.31L154.889 77.37H156.814ZM158.953 78.3C159.283 78.3033 159.533 78.3767 159.703 78.52C159.877 78.6633 159.963 78.87 159.963 79.14C159.963 79.42 159.87 79.635 159.683 79.785C159.5 79.935 159.233 80.0083 158.883 80.005L157.823 80V77.37H158.178V78.29L158.953 78.3ZM158.863 79.735C159.107 79.7383 159.29 79.69 159.413 79.59C159.54 79.4867 159.603 79.3367 159.603 79.14C159.603 78.9467 159.542 78.8033 159.418 78.71C159.295 78.6167 159.11 78.5683 158.863 78.565L158.178 78.555V79.725L158.863 79.735ZM163.983 76.5V80H163.623V76.82H162.798V76.5H163.983ZM167.21 79.68V80H164.755V79.745L166.21 78.32C166.393 78.14 166.516 77.985 166.58 77.855C166.646 77.7217 166.68 77.5883 166.68 77.455C166.68 77.2483 166.608 77.0883 166.465 76.975C166.325 76.8583 166.123 76.8 165.86 76.8C165.45 76.8 165.131 76.93 164.905 77.19L164.65 76.97C164.786 76.81 164.96 76.6867 165.17 76.6C165.383 76.5133 165.623 76.47 165.89 76.47C166.246 76.47 166.528 76.555 166.735 76.725C166.945 76.8917 167.05 77.1217 167.05 77.415C167.05 77.595 167.01 77.7683 166.93 77.935C166.85 78.1017 166.698 78.2933 166.475 78.51L165.285 79.68H167.21ZM167.985 79.48C168.062 79.48 168.125 79.5067 168.175 79.56C168.225 79.61 168.25 79.6733 168.25 79.75C168.25 79.79 168.244 79.8333 168.23 79.88C168.22 79.9267 168.204 79.98 168.18 80.04L167.97 80.73H167.73L167.9 80.005C167.847 79.9883 167.804 79.9583 167.77 79.915C167.737 79.8683 167.72 79.8133 167.72 79.75C167.72 79.6733 167.745 79.61 167.795 79.56C167.845 79.5067 167.909 79.48 167.985 79.48ZM171.181 76.5V76.755L169.716 80H169.326L170.766 76.82H168.966V77.475H168.611V76.5H171.181ZM172.405 78.375C172.169 78.375 171.977 78.2883 171.83 78.115C171.687 77.9383 171.615 77.7083 171.615 77.425C171.615 77.1417 171.687 76.9133 171.83 76.74C171.977 76.5633 172.169 76.475 172.405 76.475C172.639 76.475 172.829 76.5617 172.975 76.735C173.122 76.9083 173.195 77.1383 173.195 77.425C173.195 77.7117 173.122 77.9417 172.975 78.115C172.829 78.2883 172.639 78.375 172.405 78.375ZM174.525 76.5H174.82L172.43 80H172.135L174.525 76.5ZM172.405 78.15C172.569 78.15 172.699 78.0867 172.795 77.96C172.895 77.83 172.945 77.6517 172.945 77.425C172.945 77.1983 172.895 77.0217 172.795 76.895C172.699 76.765 172.569 76.7 172.405 76.7C172.239 76.7 172.107 76.765 172.01 76.895C171.914 77.025 171.865 77.2017 171.865 77.425C171.865 77.6483 171.914 77.825 172.01 77.955C172.107 78.085 172.239 78.15 172.405 78.15ZM174.55 80.025C174.317 80.025 174.127 79.9383 173.98 79.765C173.834 79.5883 173.76 79.3583 173.76 79.075C173.76 78.7917 173.834 78.5633 173.98 78.39C174.127 78.2133 174.317 78.125 174.55 78.125C174.787 78.125 174.977 78.2133 175.12 78.39C175.267 78.5633 175.34 78.7917 175.34 79.075C175.34 79.3583 175.267 79.5883 175.12 79.765C174.977 79.9383 174.787 80.025 174.55 80.025ZM174.55 79.8C174.717 79.8 174.849 79.735 174.945 79.605C175.042 79.475 175.09 79.2983 175.09 79.075C175.09 78.8517 175.042 78.675 174.945 78.545C174.849 78.415 174.717 78.35 174.55 78.35C174.387 78.35 174.255 78.415 174.155 78.545C174.059 78.6717 174.01 78.8483 174.01 79.075C174.01 79.3017 174.059 79.48 174.155 79.61C174.255 79.7367 174.387 79.8 174.55 79.8ZM129.235 91.08H128.535V92H128.175V91.08H126.2V90.82L128.055 88.5H128.455L126.665 90.76H128.185V89.95H128.535V90.76H129.235V91.08ZM129.933 92.025C129.86 92.025 129.797 91.9983 129.743 91.945C129.693 91.8917 129.668 91.8267 129.668 91.75C129.668 91.6733 129.693 91.61 129.743 91.56C129.797 91.5067 129.86 91.48 129.933 91.48C130.007 91.48 130.07 91.5067 130.123 91.56C130.177 91.61 130.203 91.6733 130.203 91.75C130.203 91.8267 130.177 91.8917 130.123 91.945C130.07 91.9983 130.007 92.025 129.933 92.025ZM134.831 88.5V92H134.471V90.55C134.091 90.7133 133.723 90.795 133.366 90.795C132.956 90.795 132.636 90.695 132.406 90.495C132.18 90.295 132.066 90.015 132.066 89.655V88.5H132.431V89.615C132.431 89.885 132.516 90.095 132.686 90.245C132.856 90.395 133.095 90.47 133.401 90.47C133.751 90.47 134.108 90.3867 134.471 90.22V88.5H134.831ZM138.234 90.795H136.034C136.054 91.0683 136.159 91.29 136.349 91.46C136.539 91.6267 136.779 91.71 137.069 91.71C137.232 91.71 137.382 91.6817 137.519 91.625C137.655 91.565 137.774 91.4783 137.874 91.365L138.074 91.595C137.957 91.735 137.81 91.8417 137.634 91.915C137.46 91.9883 137.269 92.025 137.059 92.025C136.789 92.025 136.549 91.9683 136.339 91.855C136.132 91.7383 135.97 91.5783 135.854 91.375C135.737 91.1717 135.679 90.9417 135.679 90.685C135.679 90.4283 135.734 90.1983 135.844 89.995C135.957 89.7917 136.11 89.6333 136.304 89.52C136.5 89.4067 136.72 89.35 136.964 89.35C137.207 89.35 137.425 89.4067 137.619 89.52C137.812 89.6333 137.964 89.7917 138.074 89.995C138.184 90.195 138.239 90.425 138.239 90.685L138.234 90.795ZM136.964 89.655C136.71 89.655 136.497 89.7367 136.324 89.9C136.154 90.06 136.057 90.27 136.034 90.53H137.899C137.875 90.27 137.777 90.06 137.604 89.9C137.434 89.7367 137.22 89.655 136.964 89.655ZM141.121 89.37V92H140.766V89.685H139.506L139.471 90.335C139.444 90.8817 139.381 91.3017 139.281 91.595C139.181 91.8883 139.002 92.035 138.746 92.035C138.676 92.035 138.591 92.0217 138.491 91.995L138.516 91.69C138.576 91.7033 138.617 91.71 138.641 91.71C138.777 91.71 138.881 91.6467 138.951 91.52C139.021 91.3933 139.067 91.2367 139.091 91.05C139.114 90.8633 139.134 90.6167 139.151 90.31L139.196 89.37H141.121ZM143.23 92.025C142.97 92.025 142.737 91.9683 142.53 91.855C142.327 91.7417 142.167 91.5833 142.05 91.38C141.933 91.1733 141.875 90.9417 141.875 90.685C141.875 90.4283 141.933 90.1983 142.05 89.995C142.167 89.7917 142.327 89.6333 142.53 89.52C142.737 89.4067 142.97 89.35 143.23 89.35C143.457 89.35 143.658 89.395 143.835 89.485C144.015 89.5717 144.157 89.7 144.26 89.87L143.995 90.05C143.908 89.92 143.798 89.8233 143.665 89.76C143.532 89.6933 143.387 89.66 143.23 89.66C143.04 89.66 142.868 89.7033 142.715 89.79C142.565 89.8733 142.447 89.9933 142.36 90.15C142.277 90.3067 142.235 90.485 142.235 90.685C142.235 90.8883 142.277 91.0683 142.36 91.225C142.447 91.3783 142.565 91.4983 142.715 91.585C142.868 91.6683 143.04 91.71 143.23 91.71C143.387 91.71 143.532 91.6783 143.665 91.615C143.798 91.5517 143.908 91.455 143.995 91.325L144.26 91.505C144.157 91.675 144.015 91.805 143.835 91.895C143.655 91.9817 143.453 92.025 143.23 92.025ZM144.947 89.37H145.302V91.46L147.057 89.37H147.372V92H147.017V89.91L145.267 92H144.947V89.37ZM151.923 88.5V88.755L150.458 92H150.068L151.508 88.82H149.708V89.475H149.353V88.5H151.923ZM152.409 91.48C152.486 91.48 152.549 91.5067 152.599 91.56C152.649 91.61 152.674 91.6733 152.674 91.75C152.674 91.79 152.667 91.8333 152.654 91.88C152.644 91.9267 152.627 91.98 152.604 92.04L152.394 92.73H152.154L152.324 92.005C152.271 91.9883 152.227 91.9583 152.194 91.915C152.161 91.8683 152.144 91.8133 152.144 91.75C152.144 91.6733 152.169 91.61 152.219 91.56C152.269 91.5067 152.332 91.48 152.409 91.48ZM154.432 90C154.799 90.02 155.077 90.12 155.267 90.3C155.461 90.4767 155.557 90.7083 155.557 90.995C155.557 91.195 155.509 91.3733 155.412 91.53C155.316 91.6833 155.172 91.805 154.982 91.895C154.792 91.985 154.561 92.03 154.287 92.03C154.034 92.03 153.794 91.99 153.567 91.91C153.344 91.8267 153.164 91.7167 153.027 91.58L153.202 91.295C153.319 91.415 153.474 91.5133 153.667 91.59C153.861 91.6633 154.067 91.7 154.287 91.7C154.574 91.7 154.796 91.6383 154.952 91.515C155.109 91.3883 155.187 91.215 155.187 90.995C155.187 90.7783 155.109 90.6083 154.952 90.485C154.796 90.3617 154.559 90.3 154.242 90.3H153.992V90.035L154.962 88.82H153.172V88.5H155.422V88.755L154.432 90ZM156.756 90.375C156.519 90.375 156.328 90.2883 156.181 90.115C156.038 89.9383 155.966 89.7083 155.966 89.425C155.966 89.1417 156.038 88.9133 156.181 88.74C156.328 88.5633 156.519 88.475 156.756 88.475C156.989 88.475 157.179 88.5617 157.326 88.735C157.473 88.9083 157.546 89.1383 157.546 89.425C157.546 89.7117 157.473 89.9417 157.326 90.115C157.179 90.2883 156.989 90.375 156.756 90.375ZM158.876 88.5H159.171L156.781 92H156.486L158.876 88.5ZM156.756 90.15C156.919 90.15 157.049 90.0867 157.146 89.96C157.246 89.83 157.296 89.6517 157.296 89.425C157.296 89.1983 157.246 89.0217 157.146 88.895C157.049 88.765 156.919 88.7 156.756 88.7C156.589 88.7 156.458 88.765 156.361 88.895C156.264 89.025 156.216 89.2017 156.216 89.425C156.216 89.6483 156.264 89.825 156.361 89.955C156.458 90.085 156.589 90.15 156.756 90.15ZM158.901 92.025C158.668 92.025 158.478 91.9383 158.331 91.765C158.184 91.5883 158.111 91.3583 158.111 91.075C158.111 90.7917 158.184 90.5633 158.331 90.39C158.478 90.2133 158.668 90.125 158.901 90.125C159.138 90.125 159.328 90.2133 159.471 90.39C159.618 90.5633 159.691 90.7917 159.691 91.075C159.691 91.3583 159.618 91.5883 159.471 91.765C159.328 91.9383 159.138 92.025 158.901 92.025ZM158.901 91.8C159.068 91.8 159.199 91.735 159.296 91.605C159.393 91.475 159.441 91.2983 159.441 91.075C159.441 90.8517 159.393 90.675 159.296 90.545C159.199 90.415 159.068 90.35 158.901 90.35C158.738 90.35 158.606 90.415 158.506 90.545C158.409 90.6717 158.361 90.8483 158.361 91.075C158.361 91.3017 158.409 91.48 158.506 91.61C158.606 91.7367 158.738 91.8 158.901 91.8Z" fill="#10375E"/>
<path d="M64.5034 143.5V147H64.1434V145.55C63.7634 145.713 63.395 145.795 63.0384 145.795C62.6284 145.795 62.3084 145.695 62.0784 145.495C61.8517 145.295 61.7384 145.015 61.7384 144.655V143.5H62.1034V144.615C62.1034 144.885 62.1884 145.095 62.3584 145.245C62.5284 145.395 62.7667 145.47 63.0734 145.47C63.4234 145.47 63.78 145.387 64.1434 145.22V143.5H64.5034ZM67.9056 145.795H65.7056C65.7256 146.068 65.8306 146.29 66.0206 146.46C66.2106 146.627 66.4506 146.71 66.7406 146.71C66.9039 146.71 67.0539 146.682 67.1906 146.625C67.3273 146.565 67.4456 146.478 67.5456 146.365L67.7456 146.595C67.6289 146.735 67.4823 146.842 67.3056 146.915C67.1323 146.988 66.9406 147.025 66.7306 147.025C66.4606 147.025 66.2206 146.968 66.0106 146.855C65.8039 146.738 65.6423 146.578 65.5256 146.375C65.4089 146.172 65.3506 145.942 65.3506 145.685C65.3506 145.428 65.4056 145.198 65.5156 144.995C65.6289 144.792 65.7823 144.633 65.9756 144.52C66.1723 144.407 66.3923 144.35 66.6356 144.35C66.8789 144.35 67.0973 144.407 67.2906 144.52C67.4839 144.633 67.6356 144.792 67.7456 144.995C67.8556 145.195 67.9106 145.425 67.9106 145.685L67.9056 145.795ZM66.6356 144.655C66.3823 144.655 66.1689 144.737 65.9956 144.9C65.8256 145.06 65.7289 145.27 65.7056 145.53H67.5706C67.5473 145.27 67.4489 145.06 67.2756 144.9C67.1056 144.737 66.8923 144.655 66.6356 144.655ZM70.7927 144.37V147H70.4377V144.685H69.1777L69.1427 145.335C69.116 145.882 69.0527 146.302 68.9527 146.595C68.8527 146.888 68.6744 147.035 68.4177 147.035C68.3477 147.035 68.2627 147.022 68.1627 146.995L68.1877 146.69C68.2477 146.703 68.2894 146.71 68.3127 146.71C68.4494 146.71 68.5527 146.647 68.6227 146.52C68.6927 146.393 68.7394 146.237 68.7627 146.05C68.786 145.863 68.806 145.617 68.8227 145.31L68.8677 144.37H70.7927ZM72.9019 147.025C72.6419 147.025 72.4085 146.968 72.2019 146.855C71.9985 146.742 71.8385 146.583 71.7219 146.38C71.6052 146.173 71.5469 145.942 71.5469 145.685C71.5469 145.428 71.6052 145.198 71.7219 144.995C71.8385 144.792 71.9985 144.633 72.2019 144.52C72.4085 144.407 72.6419 144.35 72.9019 144.35C73.1285 144.35 73.3302 144.395 73.5069 144.485C73.6869 144.572 73.8285 144.7 73.9319 144.87L73.6669 145.05C73.5802 144.92 73.4702 144.823 73.3369 144.76C73.2035 144.693 73.0585 144.66 72.9019 144.66C72.7119 144.66 72.5402 144.703 72.3869 144.79C72.2369 144.873 72.1185 144.993 72.0319 145.15C71.9485 145.307 71.9069 145.485 71.9069 145.685C71.9069 145.888 71.9485 146.068 72.0319 146.225C72.1185 146.378 72.2369 146.498 72.3869 146.585C72.5402 146.668 72.7119 146.71 72.9019 146.71C73.0585 146.71 73.2035 146.678 73.3369 146.615C73.4702 146.552 73.5802 146.455 73.6669 146.325L73.9319 146.505C73.8285 146.675 73.6869 146.805 73.5069 146.895C73.3269 146.982 73.1252 147.025 72.9019 147.025ZM74.6193 144.37H74.9743V146.46L76.7293 144.37H77.0443V147H76.6893V144.91L74.9393 147H74.6193V144.37Z" fill="#10375E"/>
<path d="M64.3623 131.5V135H63.9973V131.82H62.3073L62.2673 132.99C62.2507 133.473 62.2107 133.863 62.1473 134.16C62.0873 134.453 61.994 134.673 61.8673 134.82C61.7407 134.963 61.5723 135.035 61.3623 135.035C61.2723 135.035 61.179 135.023 61.0823 135L61.1123 134.67C61.169 134.683 61.224 134.69 61.2773 134.69C61.424 134.69 61.5423 134.632 61.6323 134.515C61.7257 134.398 61.7957 134.218 61.8423 133.975C61.889 133.728 61.9207 133.403 61.9373 133L61.9873 131.5H64.3623ZM65.4581 132.37H65.8131V134.46L67.5681 132.37H67.8831V135H67.5281V132.91L65.7781 135H65.4581V132.37ZM70.5755 133.64C70.9322 133.723 71.1105 133.938 71.1105 134.285C71.1105 134.515 71.0255 134.692 70.8555 134.815C70.6855 134.938 70.4322 135 70.0955 135H68.9005V132.37H70.0605C70.3605 132.37 70.5955 132.428 70.7655 132.545C70.9355 132.662 71.0205 132.828 71.0205 133.045C71.0205 133.188 70.9805 133.312 70.9005 133.415C70.8238 133.515 70.7155 133.59 70.5755 133.64ZM69.2455 133.54H70.0355C70.2388 133.54 70.3938 133.502 70.5005 133.425C70.6105 133.348 70.6655 133.237 70.6655 133.09C70.6655 132.943 70.6105 132.833 70.5005 132.76C70.3938 132.687 70.2388 132.65 70.0355 132.65H69.2455V133.54ZM70.0805 134.72C70.3072 134.72 70.4772 134.683 70.5905 134.61C70.7038 134.537 70.7605 134.422 70.7605 134.265C70.7605 134.108 70.7088 133.993 70.6055 133.92C70.5022 133.843 70.3388 133.805 70.1155 133.805H69.2455V134.72H70.0805ZM74.2425 133.795H72.0425C72.0625 134.068 72.1675 134.29 72.3575 134.46C72.5475 134.627 72.7875 134.71 73.0775 134.71C73.2408 134.71 73.3908 134.682 73.5275 134.625C73.6642 134.565 73.7825 134.478 73.8825 134.365L74.0825 134.595C73.9658 134.735 73.8192 134.842 73.6425 134.915C73.4692 134.988 73.2775 135.025 73.0675 135.025C72.7975 135.025 72.5575 134.968 72.3475 134.855C72.1408 134.738 71.9792 134.578 71.8625 134.375C71.7458 134.172 71.6875 133.942 71.6875 133.685C71.6875 133.428 71.7425 133.198 71.8525 132.995C71.9658 132.792 72.1192 132.633 72.3125 132.52C72.5092 132.407 72.7292 132.35 72.9725 132.35C73.2158 132.35 73.4342 132.407 73.6275 132.52C73.8208 132.633 73.9725 132.792 74.0825 132.995C74.1925 133.195 74.2475 133.425 74.2475 133.685L74.2425 133.795ZM72.9725 132.655C72.7192 132.655 72.5058 132.737 72.3325 132.9C72.1625 133.06 72.0658 133.27 72.0425 133.53H73.9075C73.8842 133.27 73.7858 133.06 73.6125 132.9C73.4425 132.737 73.2292 132.655 72.9725 132.655ZM76.3883 132.35C76.635 132.35 76.8583 132.407 77.0583 132.52C77.2583 132.63 77.415 132.787 77.5283 132.99C77.6417 133.193 77.6983 133.425 77.6983 133.685C77.6983 133.948 77.6417 134.182 77.5283 134.385C77.415 134.588 77.2583 134.747 77.0583 134.86C76.8617 134.97 76.6383 135.025 76.3883 135.025C76.175 135.025 75.9817 134.982 75.8083 134.895C75.6383 134.805 75.4983 134.675 75.3883 134.505V135.97H75.0333V132.37H75.3733V132.89C75.48 132.717 75.62 132.583 75.7933 132.49C75.97 132.397 76.1683 132.35 76.3883 132.35ZM76.3633 134.71C76.5467 134.71 76.7133 134.668 76.8633 134.585C77.0133 134.498 77.13 134.377 77.2133 134.22C77.3 134.063 77.3433 133.885 77.3433 133.685C77.3433 133.485 77.3 133.308 77.2133 133.155C77.13 132.998 77.0133 132.877 76.8633 132.79C76.7133 132.703 76.5467 132.66 76.3633 132.66C76.1767 132.66 76.0083 132.703 75.8583 132.79C75.7117 132.877 75.595 132.998 75.5083 133.155C75.425 133.308 75.3833 133.485 75.3833 133.685C75.3833 133.885 75.425 134.063 75.5083 134.22C75.595 134.377 75.7117 134.498 75.8583 134.585C76.0083 134.668 76.1767 134.71 76.3633 134.71ZM80.8211 132.37V135H80.4661V132.685H78.8161V135H78.4611V132.37H80.8211ZM84.0652 132.37L82.7502 135.315C82.6435 135.562 82.5202 135.737 82.3802 135.84C82.2402 135.943 82.0719 135.995 81.8752 135.995C81.7485 135.995 81.6302 135.975 81.5202 135.935C81.4102 135.895 81.3152 135.835 81.2352 135.755L81.4002 135.49C81.5335 135.623 81.6935 135.69 81.8802 135.69C82.0002 135.69 82.1019 135.657 82.1852 135.59C82.2719 135.523 82.3519 135.41 82.4252 135.25L82.5402 134.995L81.3652 132.37H81.7352L82.7252 134.605L83.7152 132.37H84.0652ZM86.6511 132.37V135H86.2961V132.685H85.0361L85.0011 133.335C84.9744 133.882 84.9111 134.302 84.8111 134.595C84.7111 134.888 84.5328 135.035 84.2761 135.035C84.2061 135.035 84.1211 135.022 84.0211 134.995L84.0461 134.69C84.1061 134.703 84.1478 134.71 84.1711 134.71C84.3078 134.71 84.4111 134.647 84.4811 134.52C84.5511 134.393 84.5978 134.237 84.6211 134.05C84.6444 133.863 84.6644 133.617 84.6811 133.31L84.7261 132.37H86.6511ZM88.7903 133.3C89.1203 133.303 89.3703 133.377 89.5403 133.52C89.7136 133.663 89.8003 133.87 89.8003 134.14C89.8003 134.42 89.7069 134.635 89.5203 134.785C89.3369 134.935 89.0703 135.008 88.7203 135.005L87.6603 135V132.37H88.0153V133.29L88.7903 133.3ZM88.7003 134.735C88.9436 134.738 89.1269 134.69 89.2503 134.59C89.3769 134.487 89.4403 134.337 89.4403 134.14C89.4403 133.947 89.3786 133.803 89.2553 133.71C89.1319 133.617 88.9469 133.568 88.7003 133.565L88.0153 133.555V134.725L88.7003 134.735Z" fill="#10375E"/>
<defs>
<filter id="filter0_d" x="0" y="0" width="221" height="189" filterUnits="userSpaceOnUse" color-interpolation-filters="sRGB">
<feFlood flood-opacity="0" result="BackgroundImageFix"/>
<feColorMatrix in="SourceAlpha" type="matrix" values="0 0 0 0 0 0 0 0 0 0 0 0 0 0 0 0 0 0 127 0"/>
<feOffset/>
<feGaussianBlur stdDeviation="7.5"/>
<feColorMatrix type="matrix" values="0 0 0 0 0 0 0 0 0 0 0 0 0 0 0 0 0 0 0.25 0"/>
<feBlend mode="normal" in2="BackgroundImageFix" result="effect1_dropShadow"/>
<feBlend mode="normal" in="SourceGraphic" in2="effect1_dropShadow" result="shape"/>
</filter>
</defs>
</svg>
