<svg width="850" height="763" viewBox="0 0 850 763" fill="none" xmlns="http://www.w3.org/2000/svg">
<path d="M69.3018 355.5C106.184 317.5 122.802 363 186.302 317.5C290.469 310.167 553.502 295.7 572.302 304.5C591.102 313.3 635.802 411.167 655.802 459C655.802 469.333 692.302 526 606.802 673C565.802 730 479.802 773 417.802 718.5C401.654 704.305 364.41 594.983 199.802 673C103.802 718.5 46.6931 731.5 10.8018 673C-16.1933 629 10.8019 597.593 54.3018 552C199.802 399.5 32.4195 393.5 69.3018 355.5Z" fill="#E0E2D5"/>
<path d="M69.3018 355.5C106.184 317.5 122.802 363 186.302 317.5C290.469 310.167 553.502 295.7 572.302 304.5C591.102 313.3 635.802 411.167 655.802 459C655.802 469.333 692.302 526 606.802 673C565.802 730 479.802 773 417.802 718.5C401.654 704.305 364.41 594.983 199.802 673C103.802 718.5 46.6931 731.5 10.8018 673C-16.1933 629 10.8019 597.593 54.3018 552C199.802 399.5 32.4195 393.5 69.3018 355.5Z" fill="url(#paint0_linear)"/>
<path d="M624.729 9.50472C499.273 0.124838 490.229 124.505 476.229 131.505C445.729 177.505 420.972 93.2534 343.729 168.005C235.229 273.005 422.729 279.005 410.729 384.505C398.729 490.005 463.229 511.505 570.729 510.505C678.229 509.505 622.729 426.351 697.729 463.005C759.385 493.137 779.302 450 807.302 410L842.302 344.5C871.802 194 796.229 95.0047 796.229 95.0047C796.229 95.0047 731.729 17.5047 624.729 9.50472Z" fill="#6DB8BB"/>
<path d="M624.729 9.50472C499.273 0.124838 490.229 124.505 476.229 131.505C445.729 177.505 420.972 93.2534 343.729 168.005C235.229 273.005 422.729 279.005 410.729 384.505C398.729 490.005 463.229 511.505 570.729 510.505C678.229 509.505 622.729 426.351 697.729 463.005C759.385 493.137 779.302 450 807.302 410L842.302 344.5C871.802 194 796.229 95.0047 796.229 95.0047C796.229 95.0047 731.729 17.5047 624.729 9.50472Z" fill="url(#paint1_linear)"/>
<circle cx="522.802" cy="80" r="49" stroke="#E0E5DA" stroke-width="2"/>
<circle cx="522.802" cy="80" r="39" stroke="#E0E5DA" stroke-width="2"/>
<circle cx="522.802" cy="80" r="59" stroke="#E0E5DA" stroke-width="2"/>
<circle cx="522.802" cy="80" r="69" stroke="#E0E5DA" stroke-width="2"/>
<circle cx="522.802" cy="80" r="79" stroke="#E0E5DA" stroke-width="2"/>
<circle cx="103.802" cy="473" r="49" stroke="#247D8D" stroke-width="2"/>
<circle cx="103.802" cy="473" r="39" stroke="#247D8D" stroke-width="2"/>
<circle cx="103.802" cy="473" r="59" stroke="#247D8D" stroke-width="2"/>
<circle cx="103.802" cy="473" r="69" stroke="#247D8D" stroke-width="2"/>
<circle cx="103.802" cy="473" r="79" stroke="#247D8D" stroke-width="2"/>
<circle cx="646.302" cy="579.5" r="113.5" stroke="#6DB8BB" stroke-width="2"/>
<circle cx="646.302" cy="579.5" r="90.5" stroke="#6DB8BB" stroke-width="2"/>
<circle cx="646.302" cy="579.5" r="136.5" stroke="#6DB8BB" stroke-width="2"/>
<circle cx="646.302" cy="579.5" r="159.5" stroke="#6DB8BB" stroke-width="2"/>
<circle cx="646.302" cy="579.5" r="182.5" stroke="#6DB8BB" stroke-width="2"/>
<defs>
<linearGradient id="paint0_linear" x1="331.772" y1="303.073" x2="331.772" y2="743.609" gradientUnits="userSpaceOnUse">
<stop stop-color="#5DADB0"/>
<stop offset="1" stop-color="white" stop-opacity="0"/>
</linearGradient>
<linearGradient id="paint1_linear" x1="553.016" y1="9" x2="553.016" y2="510.537" gradientUnits="userSpaceOnUse">
<stop stop-color="#6DB8BB"/>
<stop offset="1" stop-color="#05647A"/>
</linearGradient>
</defs>
</svg>
