<svg width="781" height="787" viewBox="0 0 781 787" fill="none" xmlns="http://www.w3.org/2000/svg">
<path d="M224.896 695C163.396 638 226.896 599.008 146.396 495.508C-33.1037 389 -50.6037 159.739 110.896 123C339.896 70.9053 360.081 354.216 418.081 371.216C561.581 361.716 537.86 267.153 659.954 338.28C707.297 372.387 743.012 443.931 697.746 495.508C685.956 508.942 540.782 516.779 605.581 653.716C643.372 733.578 616.081 765.239 590.081 781.216C564.081 797.193 507.93 772.044 470.062 735.856C343.399 614.816 286.396 752 224.896 695Z" fill="#E0E2D5"/>
<path d="M224.896 695C163.396 638 226.896 599.008 146.396 495.508C-33.1037 389 -50.6037 159.739 110.896 123C339.896 70.9053 360.081 354.216 418.081 371.216C561.581 361.716 537.86 267.153 659.954 338.28C707.297 372.387 743.012 443.931 697.746 495.508C685.956 508.942 540.782 516.779 605.581 653.716C643.372 733.578 616.081 765.239 590.081 781.216C564.081 797.193 507.93 772.044 470.062 735.856C343.399 614.816 286.396 752 224.896 695Z" fill="url(#paint0_linear)"/>
<path d="M547.323 0.50472C421.867 -8.87516 412.823 115.505 398.823 122.505C368.323 168.505 343.566 84.2534 266.323 159.005C157.823 264.005 300.396 309.5 288.396 415C276.396 520.5 385.823 502.505 493.323 501.505C600.823 500.505 545.323 417.351 620.323 454.005C681.979 484.137 706.969 470.5 743.896 406.5C838.396 201.5 718.824 86.0047 718.824 86.0047C718.824 86.0047 654.323 8.50472 547.323 0.50472Z" fill="#6DB8BB"/>
<path d="M547.323 0.50472C421.867 -8.87516 412.823 115.505 398.823 122.505C368.323 168.505 343.566 84.2534 266.323 159.005C157.823 264.005 300.396 309.5 288.396 415C276.396 520.5 385.823 502.505 493.323 501.505C600.823 500.505 545.323 417.351 620.323 454.005C681.979 484.137 706.969 470.5 743.896 406.5C838.396 201.5 718.824 86.0047 718.824 86.0047C718.824 86.0047 654.323 8.50472 547.323 0.50472Z" fill="url(#paint1_linear)"/>
<circle cx="524.396" cy="274" r="66.3896" stroke="white" stroke-width="2"/>
<circle cx="524.396" cy="274" r="52.8529" stroke="white" stroke-width="2"/>
<circle cx="524.396" cy="274" r="79.9264" stroke="white" stroke-width="2"/>
<circle cx="524.396" cy="274" r="93.4632" stroke="white" stroke-width="2"/>
<circle cx="524.396" cy="274" r="107" stroke="white" stroke-width="2"/>
<g filter="url(#filter0_d)">
<rect x="158.396" y="324" width="191" height="155" rx="8" fill="white"/>
</g>
<rect x="209.396" y="362.994" width="1" height="77.9874" fill="#10375E"/>
<rect x="215.396" y="362.994" width="93" height="5.84906" fill="#05647A"/>
<rect x="215.396" y="372.742" width="62" height="5.84906" fill="#FEA02F"/>
<rect x="215.396" y="394.189" width="64" height="5.84906" fill="#05647A"/>
<rect x="215.396" y="403.937" width="89" height="5.84906" fill="#FEA02F"/>
<rect x="215.396" y="425.384" width="93" height="5.84906" fill="#05647A"/>
<rect x="215.396" y="435.132" width="69" height="5.84906" fill="#FEA02F"/>
<path d="M291.744 435.957V436.365L290.046 440.157H289.41L291.072 436.479H289.152V437.229H288.576V435.957H291.744ZM293.869 440.205C293.537 440.205 293.241 440.121 292.981 439.953C292.725 439.781 292.523 439.533 292.375 439.209C292.227 438.885 292.153 438.501 292.153 438.057C292.153 437.613 292.227 437.229 292.375 436.905C292.523 436.581 292.725 436.335 292.981 436.167C293.241 435.995 293.537 435.909 293.869 435.909C294.197 435.909 294.489 435.995 294.745 436.167C295.005 436.335 295.209 436.581 295.357 436.905C295.505 437.229 295.579 437.613 295.579 438.057C295.579 438.501 295.505 438.885 295.357 439.209C295.209 439.533 295.005 439.781 294.745 439.953C294.489 440.121 294.197 440.205 293.869 440.205ZM293.869 439.671C294.205 439.671 294.473 439.533 294.673 439.257C294.877 438.981 294.979 438.581 294.979 438.057C294.979 437.533 294.877 437.133 294.673 436.857C294.473 436.581 294.205 436.443 293.869 436.443C293.529 436.443 293.257 436.581 293.053 436.857C292.853 437.133 292.753 437.533 292.753 438.057C292.753 438.581 292.853 438.981 293.053 439.257C293.257 439.533 293.529 439.671 293.869 439.671ZM297.067 438.213C296.775 438.213 296.539 438.107 296.359 437.895C296.179 437.683 296.089 437.407 296.089 437.067C296.089 436.727 296.179 436.451 296.359 436.239C296.539 436.027 296.775 435.921 297.067 435.921C297.359 435.921 297.593 436.027 297.769 436.239C297.949 436.447 298.039 436.723 298.039 437.067C298.039 437.411 297.949 437.689 297.769 437.901C297.593 438.109 297.359 438.213 297.067 438.213ZM299.599 435.957H300.061L297.193 440.157H296.731L299.599 435.957ZM297.067 437.871C297.251 437.871 297.395 437.801 297.499 437.661C297.603 437.517 297.655 437.319 297.655 437.067C297.655 436.815 297.603 436.619 297.499 436.479C297.395 436.335 297.251 436.263 297.067 436.263C296.887 436.263 296.743 436.335 296.635 436.479C296.531 436.623 296.479 436.819 296.479 437.067C296.479 437.315 296.531 437.511 296.635 437.655C296.743 437.799 296.887 437.871 297.067 437.871ZM299.725 440.193C299.433 440.193 299.197 440.089 299.017 439.881C298.841 439.669 298.753 439.391 298.753 439.047C298.753 438.703 298.841 438.427 299.017 438.219C299.197 438.007 299.433 437.901 299.725 437.901C300.017 437.901 300.253 438.007 300.433 438.219C300.613 438.431 300.703 438.707 300.703 439.047C300.703 439.387 300.613 439.663 300.433 439.875C300.253 440.087 300.017 440.193 299.725 440.193ZM299.725 439.851C299.905 439.851 300.047 439.779 300.151 439.635C300.259 439.491 300.313 439.295 300.313 439.047C300.313 438.799 300.259 438.603 300.151 438.459C300.047 438.315 299.905 438.243 299.725 438.243C299.541 438.243 299.397 438.315 299.293 438.459C299.189 438.599 299.137 438.795 299.137 439.047C299.137 439.299 299.189 439.497 299.293 439.641C299.397 439.781 299.541 439.851 299.725 439.851Z" fill="#FEA02F"/>
<path d="M173.78 433.258H171.548L171.086 434.308H170.468L172.37 430.108H172.964L174.872 434.308H174.242L173.78 433.258ZM173.57 432.778L172.664 430.72L171.758 432.778H173.57ZM177.187 431.098C177.495 431.098 177.771 431.166 178.015 431.302C178.259 431.438 178.449 431.628 178.585 431.872C178.725 432.116 178.795 432.398 178.795 432.718C178.795 433.038 178.725 433.322 178.585 433.57C178.449 433.814 178.259 434.004 178.015 434.14C177.771 434.276 177.495 434.344 177.187 434.344C176.959 434.344 176.749 434.3 176.557 434.212C176.369 434.124 176.209 433.996 176.077 433.828V435.472H175.501V431.128H176.053V431.632C176.181 431.456 176.343 431.324 176.539 431.236C176.735 431.144 176.951 431.098 177.187 431.098ZM177.139 433.84C177.343 433.84 177.525 433.794 177.685 433.702C177.849 433.606 177.977 433.474 178.069 433.306C178.165 433.134 178.213 432.938 178.213 432.718C178.213 432.498 178.165 432.304 178.069 432.136C177.977 431.964 177.849 431.832 177.685 431.74C177.525 431.648 177.343 431.602 177.139 431.602C176.939 431.602 176.757 431.65 176.593 431.746C176.433 431.838 176.305 431.968 176.209 432.136C176.117 432.304 176.071 432.498 176.071 432.718C176.071 432.938 176.117 433.134 176.209 433.306C176.301 433.474 176.429 433.606 176.593 433.702C176.757 433.794 176.939 433.84 177.139 433.84ZM181.018 434.344C180.694 434.344 180.404 434.274 180.148 434.134C179.896 433.994 179.698 433.802 179.554 433.558C179.41 433.31 179.338 433.03 179.338 432.718C179.338 432.406 179.41 432.128 179.554 431.884C179.698 431.636 179.896 431.444 180.148 431.308C180.404 431.168 180.694 431.098 181.018 431.098C181.306 431.098 181.562 431.156 181.786 431.272C182.014 431.388 182.19 431.556 182.314 431.776L181.876 432.058C181.776 431.906 181.652 431.792 181.504 431.716C181.356 431.64 181.192 431.602 181.012 431.602C180.804 431.602 180.616 431.648 180.448 431.74C180.284 431.832 180.154 431.964 180.058 432.136C179.966 432.304 179.92 432.498 179.92 432.718C179.92 432.942 179.966 433.14 180.058 433.312C180.154 433.48 180.284 433.61 180.448 433.702C180.616 433.794 180.804 433.84 181.012 433.84C181.192 433.84 181.356 433.802 181.504 433.726C181.652 433.65 181.776 433.536 181.876 433.384L182.314 433.66C182.19 433.88 182.014 434.05 181.786 434.17C181.562 434.286 181.306 434.344 181.018 434.344ZM185.887 432.736C185.887 432.78 185.883 432.838 185.875 432.91H183.295C183.331 433.19 183.453 433.416 183.661 433.588C183.873 433.756 184.135 433.84 184.447 433.84C184.827 433.84 185.133 433.712 185.365 433.456L185.683 433.828C185.539 433.996 185.359 434.124 185.143 434.212C184.931 434.3 184.693 434.344 184.429 434.344C184.093 434.344 183.795 434.276 183.535 434.14C183.275 434 183.073 433.806 182.929 433.558C182.789 433.31 182.719 433.03 182.719 432.718C182.719 432.41 182.787 432.132 182.923 431.884C183.063 431.636 183.253 431.444 183.493 431.308C183.737 431.168 184.011 431.098 184.315 431.098C184.619 431.098 184.889 431.168 185.125 431.308C185.365 431.444 185.551 431.636 185.683 431.884C185.819 432.132 185.887 432.416 185.887 432.736ZM184.315 431.584C184.039 431.584 183.807 431.668 183.619 431.836C183.435 432.004 183.327 432.224 183.295 432.496H185.335C185.303 432.228 185.193 432.01 185.005 431.842C184.821 431.67 184.591 431.584 184.315 431.584ZM186.78 431.128H187.356V432.478H189.168V431.128H189.744V434.308H189.168V432.976H187.356V434.308H186.78V431.128ZM191.998 431.098C192.438 431.098 192.774 431.206 193.006 431.422C193.242 431.638 193.36 431.96 193.36 432.388V434.308H192.814V433.888C192.718 434.036 192.58 434.15 192.4 434.23C192.224 434.306 192.014 434.344 191.77 434.344C191.414 434.344 191.128 434.258 190.912 434.086C190.7 433.914 190.594 433.688 190.594 433.408C190.594 433.128 190.696 432.904 190.9 432.736C191.104 432.564 191.428 432.478 191.872 432.478H192.784V432.364C192.784 432.116 192.712 431.926 192.568 431.794C192.424 431.662 192.212 431.596 191.932 431.596C191.744 431.596 191.56 431.628 191.38 431.692C191.2 431.752 191.048 431.834 190.924 431.938L190.684 431.506C190.848 431.374 191.044 431.274 191.272 431.206C191.5 431.134 191.742 431.098 191.998 431.098ZM191.866 433.9C192.086 433.9 192.276 433.852 192.436 433.756C192.596 433.656 192.712 433.516 192.784 433.336V432.892H191.896C191.408 432.892 191.164 433.056 191.164 433.384C191.164 433.544 191.226 433.67 191.35 433.762C191.474 433.854 191.646 433.9 191.866 433.9ZM197.128 431.128V434.308H196.552V431.632H195.184L195.148 432.34C195.128 432.768 195.09 433.126 195.034 433.414C194.978 433.698 194.886 433.926 194.758 434.098C194.63 434.27 194.452 434.356 194.224 434.356C194.12 434.356 194.002 434.338 193.87 434.302L193.906 433.816C193.958 433.828 194.006 433.834 194.05 433.834C194.21 433.834 194.33 433.764 194.41 433.624C194.49 433.484 194.542 433.318 194.566 433.126C194.59 432.934 194.612 432.66 194.632 432.304L194.686 431.128H197.128Z" fill="#10375E"/>
<path d="M174.158 398.913V403.113H173.564V401.451C173.12 401.623 172.71 401.709 172.334 401.709C171.822 401.709 171.424 401.585 171.14 401.337C170.86 401.089 170.72 400.735 170.72 400.275V398.913H171.308V400.209C171.308 400.521 171.402 400.761 171.59 400.929C171.782 401.097 172.052 401.181 172.4 401.181C172.788 401.181 173.176 401.093 173.564 400.917V398.913H174.158ZM178.246 401.541C178.246 401.585 178.242 401.643 178.234 401.715H175.654C175.69 401.995 175.812 402.221 176.02 402.393C176.232 402.561 176.494 402.645 176.806 402.645C177.186 402.645 177.492 402.517 177.724 402.261L178.042 402.633C177.898 402.801 177.718 402.929 177.502 403.017C177.29 403.105 177.052 403.149 176.788 403.149C176.452 403.149 176.154 403.081 175.894 402.945C175.634 402.805 175.432 402.611 175.288 402.363C175.148 402.115 175.078 401.835 175.078 401.523C175.078 401.215 175.146 400.937 175.282 400.689C175.422 400.441 175.612 400.249 175.852 400.113C176.096 399.973 176.37 399.903 176.674 399.903C176.978 399.903 177.248 399.973 177.484 400.113C177.724 400.249 177.91 400.441 178.042 400.689C178.178 400.937 178.246 401.221 178.246 401.541ZM176.674 400.389C176.398 400.389 176.166 400.473 175.978 400.641C175.794 400.809 175.686 401.029 175.654 401.301H177.694C177.662 401.033 177.552 400.815 177.364 400.647C177.18 400.475 176.95 400.389 176.674 400.389ZM181.817 399.933V403.113H181.241V400.437H179.873L179.837 401.145C179.817 401.573 179.779 401.931 179.723 402.219C179.667 402.503 179.575 402.731 179.447 402.903C179.319 403.075 179.141 403.161 178.913 403.161C178.809 403.161 178.691 403.143 178.559 403.107L178.595 402.621C178.647 402.633 178.695 402.639 178.739 402.639C178.899 402.639 179.019 402.569 179.099 402.429C179.179 402.289 179.231 402.123 179.255 401.931C179.279 401.739 179.301 401.465 179.321 401.109L179.375 399.933H181.817ZM184.317 403.149C183.993 403.149 183.703 403.079 183.447 402.939C183.195 402.799 182.997 402.607 182.853 402.363C182.709 402.115 182.637 401.835 182.637 401.523C182.637 401.211 182.709 400.933 182.853 400.689C182.997 400.441 183.195 400.249 183.447 400.113C183.703 399.973 183.993 399.903 184.317 399.903C184.605 399.903 184.861 399.961 185.085 400.077C185.313 400.193 185.489 400.361 185.613 400.581L185.175 400.863C185.075 400.711 184.951 400.597 184.803 400.521C184.655 400.445 184.491 400.407 184.311 400.407C184.103 400.407 183.915 400.453 183.747 400.545C183.583 400.637 183.453 400.769 183.357 400.941C183.265 401.109 183.219 401.303 183.219 401.523C183.219 401.747 183.265 401.945 183.357 402.117C183.453 402.285 183.583 402.415 183.747 402.507C183.915 402.599 184.103 402.645 184.311 402.645C184.491 402.645 184.655 402.607 184.803 402.531C184.951 402.455 185.075 402.341 185.175 402.189L185.613 402.465C185.489 402.685 185.313 402.855 185.085 402.975C184.861 403.091 184.605 403.149 184.317 403.149ZM186.359 399.933H186.935V402.249L188.885 399.933H189.407V403.113H188.831V400.797L186.887 403.113H186.359V399.933Z" fill="#10375E"/>
<path d="M174.482 367.718V371.918H173.894V368.24H172.034L171.992 369.47C171.972 370.05 171.924 370.52 171.848 370.88C171.776 371.24 171.66 371.512 171.5 371.696C171.34 371.876 171.124 371.966 170.852 371.966C170.728 371.966 170.602 371.95 170.474 371.918L170.516 371.384C170.58 371.4 170.644 371.408 170.708 371.408C170.88 371.408 171.018 371.34 171.122 371.204C171.226 371.064 171.304 370.856 171.356 370.58C171.408 370.304 171.442 369.94 171.458 369.488L171.524 367.718H174.482ZM175.694 368.738H176.27V371.054L178.22 368.738H178.742V371.918H178.166V369.602L176.222 371.918H175.694V368.738ZM182.026 370.268C182.438 370.372 182.644 370.63 182.644 371.042C182.644 371.322 182.538 371.538 182.326 371.69C182.118 371.842 181.806 371.918 181.39 371.918H179.86V368.738H181.336C181.712 368.738 182.006 368.81 182.218 368.954C182.43 369.094 182.536 369.294 182.536 369.554C182.536 369.722 182.49 369.868 182.398 369.992C182.31 370.112 182.186 370.204 182.026 370.268ZM180.424 370.106H181.288C181.508 370.106 181.674 370.066 181.786 369.986C181.902 369.906 181.96 369.79 181.96 369.638C181.96 369.334 181.736 369.182 181.288 369.182H180.424V370.106ZM181.348 371.474C181.588 371.474 181.768 371.436 181.888 371.36C182.008 371.284 182.068 371.166 182.068 371.006C182.068 370.842 182.012 370.72 181.9 370.64C181.792 370.56 181.62 370.52 181.384 370.52H180.424V371.474H181.348ZM186.42 370.346C186.42 370.39 186.416 370.448 186.408 370.52H183.828C183.864 370.8 183.986 371.026 184.194 371.198C184.406 371.366 184.668 371.45 184.98 371.45C185.36 371.45 185.666 371.322 185.898 371.066L186.216 371.438C186.072 371.606 185.892 371.734 185.676 371.822C185.464 371.91 185.226 371.954 184.962 371.954C184.626 371.954 184.328 371.886 184.068 371.75C183.808 371.61 183.606 371.416 183.462 371.168C183.322 370.92 183.252 370.64 183.252 370.328C183.252 370.02 183.32 369.742 183.456 369.494C183.596 369.246 183.786 369.054 184.026 368.918C184.27 368.778 184.544 368.708 184.848 368.708C185.152 368.708 185.422 368.778 185.658 368.918C185.898 369.054 186.084 369.246 186.216 369.494C186.352 369.742 186.42 370.026 186.42 370.346ZM184.848 369.194C184.572 369.194 184.34 369.278 184.152 369.446C183.968 369.614 183.86 369.834 183.828 370.106H185.868C185.836 369.838 185.726 369.62 185.538 369.452C185.354 369.28 185.124 369.194 184.848 369.194ZM189 368.708C189.308 368.708 189.584 368.776 189.828 368.912C190.072 369.048 190.262 369.238 190.398 369.482C190.538 369.726 190.608 370.008 190.608 370.328C190.608 370.648 190.538 370.932 190.398 371.18C190.262 371.424 190.072 371.614 189.828 371.75C189.584 371.886 189.308 371.954 189 371.954C188.772 371.954 188.562 371.91 188.37 371.822C188.182 371.734 188.022 371.606 187.89 371.438V373.082H187.314V368.738H187.866V369.242C187.994 369.066 188.156 368.934 188.352 368.846C188.548 368.754 188.764 368.708 189 368.708ZM188.952 371.45C189.156 371.45 189.338 371.404 189.498 371.312C189.662 371.216 189.79 371.084 189.882 370.916C189.978 370.744 190.026 370.548 190.026 370.328C190.026 370.108 189.978 369.914 189.882 369.746C189.79 369.574 189.662 369.442 189.498 369.35C189.338 369.258 189.156 369.212 188.952 369.212C188.752 369.212 188.57 369.26 188.406 369.356C188.246 369.448 188.118 369.578 188.022 369.746C187.93 369.914 187.884 370.108 187.884 370.328C187.884 370.548 187.93 370.744 188.022 370.916C188.114 371.084 188.242 371.216 188.406 371.312C188.57 371.404 188.752 371.45 188.952 371.45ZM194.39 368.738V371.918H193.814V369.242H192.02V371.918H191.444V368.738H194.39ZM198.343 368.738L196.801 372.236C196.665 372.56 196.505 372.788 196.321 372.92C196.141 373.052 195.923 373.118 195.667 373.118C195.511 373.118 195.359 373.092 195.211 373.04C195.067 372.992 194.947 372.92 194.851 372.824L195.097 372.392C195.261 372.548 195.451 372.626 195.667 372.626C195.807 372.626 195.923 372.588 196.015 372.512C196.111 372.44 196.197 372.314 196.273 372.134L196.375 371.912L194.971 368.738H195.571L196.681 371.282L197.779 368.738H198.343ZM201.493 368.738V371.918H200.917V369.242H199.549L199.513 369.95C199.493 370.378 199.455 370.736 199.399 371.024C199.343 371.308 199.251 371.536 199.123 371.708C198.995 371.88 198.817 371.966 198.589 371.966C198.485 371.966 198.367 371.948 198.235 371.912L198.271 371.426C198.323 371.438 198.371 371.444 198.415 371.444C198.575 371.444 198.695 371.374 198.775 371.234C198.855 371.094 198.907 370.928 198.931 370.736C198.955 370.544 198.977 370.27 198.997 369.914L199.051 368.738H201.493ZM204.077 369.818C204.481 369.822 204.789 369.914 205.001 370.094C205.213 370.274 205.319 370.528 205.319 370.856C205.319 371.2 205.203 371.466 204.971 371.654C204.743 371.838 204.415 371.928 203.987 371.924L202.607 371.918V368.738H203.183V369.812L204.077 369.818ZM203.939 371.486C204.199 371.49 204.395 371.438 204.527 371.33C204.663 371.222 204.731 371.062 204.731 370.85C204.731 370.642 204.665 370.49 204.533 370.394C204.405 370.298 204.207 370.248 203.939 370.244L203.183 370.232V371.48L203.939 371.486Z" fill="#10375E"/>
<path d="M314.046 426.161C314.61 426.161 315.044 426.343 315.348 426.707C315.656 427.071 315.81 427.587 315.81 428.255C315.81 428.723 315.726 429.123 315.558 429.455C315.394 429.783 315.162 430.033 314.862 430.205C314.566 430.373 314.22 430.457 313.824 430.457C313.62 430.457 313.428 430.437 313.248 430.397C313.068 430.353 312.912 430.291 312.78 430.211L313.008 429.743C313.212 429.875 313.482 429.941 313.818 429.941C314.254 429.941 314.594 429.807 314.838 429.539C315.086 429.267 315.21 428.873 315.21 428.357V428.207C315.09 428.387 314.924 428.525 314.712 428.621C314.5 428.713 314.262 428.759 313.998 428.759C313.722 428.759 313.474 428.707 313.254 428.603C313.038 428.499 312.868 428.351 312.744 428.159C312.624 427.963 312.564 427.739 312.564 427.487C312.564 427.223 312.628 426.991 312.756 426.791C312.888 426.591 313.066 426.437 313.29 426.329C313.514 426.217 313.766 426.161 314.046 426.161ZM314.1 428.273C314.288 428.273 314.456 428.237 314.604 428.165C314.752 428.093 314.866 427.995 314.946 427.871C315.03 427.747 315.072 427.609 315.072 427.457C315.072 427.309 315.032 427.175 314.952 427.055C314.876 426.931 314.762 426.833 314.61 426.761C314.462 426.685 314.282 426.647 314.07 426.647C313.794 426.647 313.57 426.721 313.398 426.869C313.23 427.017 313.146 427.215 313.146 427.463C313.146 427.711 313.232 427.909 313.404 428.057C313.576 428.201 313.808 428.273 314.1 428.273ZM318.103 430.457C317.771 430.457 317.475 430.373 317.215 430.205C316.959 430.033 316.757 429.785 316.609 429.461C316.461 429.137 316.387 428.753 316.387 428.309C316.387 427.865 316.461 427.481 316.609 427.157C316.757 426.833 316.959 426.587 317.215 426.419C317.475 426.247 317.771 426.161 318.103 426.161C318.431 426.161 318.723 426.247 318.979 426.419C319.239 426.587 319.443 426.833 319.591 427.157C319.739 427.481 319.813 427.865 319.813 428.309C319.813 428.753 319.739 429.137 319.591 429.461C319.443 429.785 319.239 430.033 318.979 430.205C318.723 430.373 318.431 430.457 318.103 430.457ZM318.103 429.923C318.439 429.923 318.707 429.785 318.907 429.509C319.111 429.233 319.213 428.833 319.213 428.309C319.213 427.785 319.111 427.385 318.907 427.109C318.707 426.833 318.439 426.695 318.103 426.695C317.763 426.695 317.491 426.833 317.287 427.109C317.087 427.385 316.987 427.785 316.987 428.309C316.987 428.833 317.087 429.233 317.287 429.509C317.491 429.785 317.763 429.923 318.103 429.923ZM321.301 428.465C321.009 428.465 320.773 428.359 320.593 428.147C320.413 427.935 320.323 427.659 320.323 427.319C320.323 426.979 320.413 426.703 320.593 426.491C320.773 426.279 321.009 426.173 321.301 426.173C321.593 426.173 321.827 426.279 322.003 426.491C322.183 426.699 322.273 426.975 322.273 427.319C322.273 427.663 322.183 427.941 322.003 428.153C321.827 428.361 321.593 428.465 321.301 428.465ZM323.833 426.209H324.295L321.427 430.409H320.965L323.833 426.209ZM321.301 428.123C321.485 428.123 321.629 428.053 321.733 427.913C321.837 427.769 321.889 427.571 321.889 427.319C321.889 427.067 321.837 426.871 321.733 426.731C321.629 426.587 321.485 426.515 321.301 426.515C321.121 426.515 320.977 426.587 320.869 426.731C320.765 426.875 320.713 427.071 320.713 427.319C320.713 427.567 320.765 427.763 320.869 427.907C320.977 428.051 321.121 428.123 321.301 428.123ZM323.959 430.445C323.667 430.445 323.431 430.341 323.251 430.133C323.075 429.921 322.987 429.643 322.987 429.299C322.987 428.955 323.075 428.679 323.251 428.471C323.431 428.259 323.667 428.153 323.959 428.153C324.251 428.153 324.487 428.259 324.667 428.471C324.847 428.683 324.937 428.959 324.937 429.299C324.937 429.639 324.847 429.915 324.667 430.127C324.487 430.339 324.251 430.445 323.959 430.445ZM323.959 430.103C324.139 430.103 324.281 430.031 324.385 429.887C324.493 429.743 324.547 429.547 324.547 429.299C324.547 429.051 324.493 428.855 324.385 428.711C324.281 428.567 324.139 428.495 323.959 428.495C323.775 428.495 323.631 428.567 323.527 428.711C323.423 428.851 323.371 429.047 323.371 429.299C323.371 429.551 323.423 429.749 323.527 429.893C323.631 430.033 323.775 430.103 323.959 430.103Z" fill="#10375E"/>
<path d="M311.252 406.76C311.492 406.852 311.676 406.984 311.804 407.156C311.932 407.328 311.996 407.534 311.996 407.774C311.996 408.026 311.928 408.246 311.792 408.434C311.656 408.618 311.462 408.76 311.21 408.86C310.958 408.96 310.662 409.01 310.322 409.01C309.986 409.01 309.692 408.96 309.44 408.86C309.192 408.76 309 408.618 308.864 408.434C308.728 408.246 308.66 408.026 308.66 407.774C308.66 407.534 308.722 407.328 308.846 407.156C308.974 406.984 309.158 406.852 309.398 406.76C309.206 406.668 309.06 406.546 308.96 406.394C308.86 406.242 308.81 406.062 308.81 405.854C308.81 405.622 308.872 405.42 308.996 405.248C309.124 405.076 309.302 404.944 309.53 404.852C309.758 404.76 310.022 404.714 310.322 404.714C310.626 404.714 310.892 404.76 311.12 404.852C311.352 404.944 311.53 405.076 311.654 405.248C311.782 405.42 311.846 405.622 311.846 405.854C311.846 406.058 311.794 406.238 311.69 406.394C311.59 406.546 311.444 406.668 311.252 406.76ZM310.322 405.2C310.038 405.2 309.814 405.262 309.65 405.386C309.486 405.506 309.404 405.67 309.404 405.878C309.404 406.086 309.484 406.25 309.644 406.37C309.808 406.49 310.034 406.55 310.322 406.55C310.614 406.55 310.842 406.49 311.006 406.37C311.174 406.25 311.258 406.086 311.258 405.878C311.258 405.67 311.172 405.506 311 405.386C310.832 405.262 310.606 405.2 310.322 405.2ZM310.322 408.524C310.654 408.524 310.916 408.456 311.108 408.32C311.3 408.18 311.396 407.992 311.396 407.756C311.396 407.524 311.3 407.342 311.108 407.21C310.916 407.074 310.654 407.006 310.322 407.006C309.99 407.006 309.73 407.074 309.542 407.21C309.354 407.342 309.26 407.524 309.26 407.756C309.26 407.992 309.354 408.18 309.542 408.32C309.73 408.456 309.99 408.524 310.322 408.524ZM315.114 406.76C315.354 406.852 315.538 406.984 315.666 407.156C315.794 407.328 315.858 407.534 315.858 407.774C315.858 408.026 315.79 408.246 315.654 408.434C315.518 408.618 315.324 408.76 315.072 408.86C314.82 408.96 314.524 409.01 314.184 409.01C313.848 409.01 313.554 408.96 313.302 408.86C313.054 408.76 312.862 408.618 312.726 408.434C312.59 408.246 312.522 408.026 312.522 407.774C312.522 407.534 312.584 407.328 312.708 407.156C312.836 406.984 313.02 406.852 313.26 406.76C313.068 406.668 312.922 406.546 312.822 406.394C312.722 406.242 312.672 406.062 312.672 405.854C312.672 405.622 312.734 405.42 312.858 405.248C312.986 405.076 313.164 404.944 313.392 404.852C313.62 404.76 313.884 404.714 314.184 404.714C314.488 404.714 314.754 404.76 314.982 404.852C315.214 404.944 315.392 405.076 315.516 405.248C315.644 405.42 315.708 405.622 315.708 405.854C315.708 406.058 315.656 406.238 315.552 406.394C315.452 406.546 315.306 406.668 315.114 406.76ZM314.184 405.2C313.9 405.2 313.676 405.262 313.512 405.386C313.348 405.506 313.266 405.67 313.266 405.878C313.266 406.086 313.346 406.25 313.506 406.37C313.67 406.49 313.896 406.55 314.184 406.55C314.476 406.55 314.704 406.49 314.868 406.37C315.036 406.25 315.12 406.086 315.12 405.878C315.12 405.67 315.034 405.506 314.862 405.386C314.694 405.262 314.468 405.2 314.184 405.2ZM314.184 408.524C314.516 408.524 314.778 408.456 314.97 408.32C315.162 408.18 315.258 407.992 315.258 407.756C315.258 407.524 315.162 407.342 314.97 407.21C314.778 407.074 314.516 407.006 314.184 407.006C313.852 407.006 313.592 407.074 313.404 407.21C313.216 407.342 313.122 407.524 313.122 407.756C313.122 407.992 313.216 408.18 313.404 408.32C313.592 408.456 313.852 408.524 314.184 408.524ZM317.26 407.018C316.968 407.018 316.732 406.912 316.552 406.7C316.372 406.488 316.282 406.212 316.282 405.872C316.282 405.532 316.372 405.256 316.552 405.044C316.732 404.832 316.968 404.726 317.26 404.726C317.552 404.726 317.786 404.832 317.962 405.044C318.142 405.252 318.232 405.528 318.232 405.872C318.232 406.216 318.142 406.494 317.962 406.706C317.786 406.914 317.552 407.018 317.26 407.018ZM319.792 404.762H320.254L317.386 408.962H316.924L319.792 404.762ZM317.26 406.676C317.444 406.676 317.588 406.606 317.692 406.466C317.796 406.322 317.848 406.124 317.848 405.872C317.848 405.62 317.796 405.424 317.692 405.284C317.588 405.14 317.444 405.068 317.26 405.068C317.08 405.068 316.936 405.14 316.828 405.284C316.724 405.428 316.672 405.624 316.672 405.872C316.672 406.12 316.724 406.316 316.828 406.46C316.936 406.604 317.08 406.676 317.26 406.676ZM319.918 408.998C319.626 408.998 319.39 408.894 319.21 408.686C319.034 408.474 318.946 408.196 318.946 407.852C318.946 407.508 319.034 407.232 319.21 407.024C319.39 406.812 319.626 406.706 319.918 406.706C320.21 406.706 320.446 406.812 320.626 407.024C320.806 407.236 320.896 407.512 320.896 407.852C320.896 408.192 320.806 408.468 320.626 408.68C320.446 408.892 320.21 408.998 319.918 408.998ZM319.918 408.656C320.098 408.656 320.24 408.584 320.344 408.44C320.452 408.296 320.506 408.1 320.506 407.852C320.506 407.604 320.452 407.408 320.344 407.264C320.24 407.12 320.098 407.048 319.918 407.048C319.734 407.048 319.59 407.12 319.486 407.264C319.382 407.404 319.33 407.6 319.33 407.852C319.33 408.104 319.382 408.302 319.486 408.446C319.59 408.586 319.734 408.656 319.918 408.656Z" fill="#FEA02F"/>
<path d="M284.884 396.688C285.484 396.688 285.924 396.802 286.204 397.03C286.488 397.254 286.63 397.562 286.63 397.954C286.63 398.202 286.57 398.426 286.45 398.626C286.334 398.822 286.156 398.978 285.916 399.094C285.68 399.206 285.388 399.262 285.04 399.262C284.744 399.262 284.458 399.218 284.182 399.13C283.906 399.038 283.678 398.912 283.498 398.752L283.774 398.278C283.918 398.414 284.102 398.524 284.326 398.608C284.55 398.688 284.786 398.728 285.034 398.728C285.35 398.728 285.594 398.662 285.766 398.53C285.942 398.394 286.03 398.21 286.03 397.978C286.03 397.726 285.934 397.536 285.742 397.408C285.55 397.276 285.222 397.21 284.758 397.21H283.804L284.026 395.014H286.396V395.536H284.53L284.416 396.688H284.884ZM288.942 396.664C289.218 396.664 289.464 396.716 289.68 396.82C289.9 396.924 290.072 397.074 290.196 397.27C290.32 397.462 290.382 397.684 290.382 397.936C290.382 398.2 290.316 398.432 290.184 398.632C290.056 398.832 289.878 398.988 289.65 399.1C289.426 399.208 289.174 399.262 288.894 399.262C288.33 399.262 287.894 399.08 287.586 398.716C287.282 398.352 287.13 397.836 287.13 397.168C287.13 396.7 287.212 396.302 287.376 395.974C287.544 395.642 287.776 395.392 288.072 395.224C288.372 395.052 288.72 394.966 289.116 394.966C289.32 394.966 289.512 394.988 289.692 395.032C289.872 395.072 290.028 395.132 290.16 395.212L289.932 395.68C289.732 395.548 289.464 395.482 289.128 395.482C288.692 395.482 288.35 395.618 288.102 395.89C287.854 396.158 287.73 396.55 287.73 397.066C287.73 397.13 287.732 397.18 287.736 397.216C287.856 397.036 288.02 396.9 288.228 396.808C288.44 396.712 288.678 396.664 288.942 396.664ZM288.87 398.776C289.146 398.776 289.37 398.702 289.542 398.554C289.714 398.406 289.8 398.208 289.8 397.96C289.8 397.712 289.712 397.516 289.536 397.372C289.364 397.224 289.132 397.15 288.84 397.15C288.652 397.15 288.484 397.186 288.336 397.258C288.192 397.33 288.078 397.428 287.994 397.552C287.914 397.676 287.874 397.814 287.874 397.966C287.874 398.114 287.912 398.25 287.988 398.374C288.068 398.494 288.182 398.592 288.33 398.668C288.482 398.74 288.662 398.776 288.87 398.776ZM291.627 397.27C291.335 397.27 291.099 397.164 290.919 396.952C290.739 396.74 290.649 396.464 290.649 396.124C290.649 395.784 290.739 395.508 290.919 395.296C291.099 395.084 291.335 394.978 291.627 394.978C291.919 394.978 292.153 395.084 292.329 395.296C292.509 395.504 292.599 395.78 292.599 396.124C292.599 396.468 292.509 396.746 292.329 396.958C292.153 397.166 291.919 397.27 291.627 397.27ZM294.159 395.014H294.621L291.753 399.214H291.291L294.159 395.014ZM291.627 396.928C291.811 396.928 291.955 396.858 292.059 396.718C292.163 396.574 292.215 396.376 292.215 396.124C292.215 395.872 292.163 395.676 292.059 395.536C291.955 395.392 291.811 395.32 291.627 395.32C291.447 395.32 291.303 395.392 291.195 395.536C291.091 395.68 291.039 395.876 291.039 396.124C291.039 396.372 291.091 396.568 291.195 396.712C291.303 396.856 291.447 396.928 291.627 396.928ZM294.285 399.25C293.993 399.25 293.757 399.146 293.577 398.938C293.401 398.726 293.313 398.448 293.313 398.104C293.313 397.76 293.401 397.484 293.577 397.276C293.757 397.064 293.993 396.958 294.285 396.958C294.577 396.958 294.813 397.064 294.993 397.276C295.173 397.488 295.263 397.764 295.263 398.104C295.263 398.444 295.173 398.72 294.993 398.932C294.813 399.144 294.577 399.25 294.285 399.25ZM294.285 398.908C294.465 398.908 294.607 398.836 294.711 398.692C294.819 398.548 294.873 398.352 294.873 398.104C294.873 397.856 294.819 397.66 294.711 397.516C294.607 397.372 294.465 397.3 294.285 397.3C294.101 397.3 293.957 397.372 293.853 397.516C293.749 397.656 293.697 397.852 293.697 398.104C293.697 398.356 293.749 398.554 293.853 398.698C293.957 398.838 294.101 398.908 294.285 398.908Z" fill="#10375E"/>
<path d="M284.884 375.241C285.484 375.241 285.924 375.355 286.204 375.583C286.488 375.807 286.63 376.115 286.63 376.507C286.63 376.755 286.57 376.979 286.45 377.179C286.334 377.375 286.156 377.531 285.916 377.647C285.68 377.759 285.388 377.815 285.04 377.815C284.744 377.815 284.458 377.771 284.182 377.683C283.906 377.591 283.678 377.465 283.498 377.305L283.774 376.831C283.918 376.967 284.102 377.077 284.326 377.161C284.55 377.241 284.786 377.281 285.034 377.281C285.35 377.281 285.594 377.215 285.766 377.083C285.942 376.947 286.03 376.763 286.03 376.531C286.03 376.279 285.934 376.089 285.742 375.961C285.55 375.829 285.222 375.763 284.758 375.763H283.804L284.026 373.567H286.396V374.089H284.53L284.416 375.241H284.884ZM288.846 377.815C288.514 377.815 288.218 377.731 287.958 377.563C287.702 377.391 287.5 377.143 287.352 376.819C287.204 376.495 287.13 376.111 287.13 375.667C287.13 375.223 287.204 374.839 287.352 374.515C287.5 374.191 287.702 373.945 287.958 373.777C288.218 373.605 288.514 373.519 288.846 373.519C289.174 373.519 289.466 373.605 289.722 373.777C289.982 373.945 290.186 374.191 290.334 374.515C290.482 374.839 290.556 375.223 290.556 375.667C290.556 376.111 290.482 376.495 290.334 376.819C290.186 377.143 289.982 377.391 289.722 377.563C289.466 377.731 289.174 377.815 288.846 377.815ZM288.846 377.281C289.182 377.281 289.45 377.143 289.65 376.867C289.854 376.591 289.956 376.191 289.956 375.667C289.956 375.143 289.854 374.743 289.65 374.467C289.45 374.191 289.182 374.053 288.846 374.053C288.506 374.053 288.234 374.191 288.03 374.467C287.83 374.743 287.73 375.143 287.73 375.667C287.73 376.191 287.83 376.591 288.03 376.867C288.234 377.143 288.506 377.281 288.846 377.281ZM292.044 375.823C291.752 375.823 291.516 375.717 291.336 375.505C291.156 375.293 291.066 375.017 291.066 374.677C291.066 374.337 291.156 374.061 291.336 373.849C291.516 373.637 291.752 373.531 292.044 373.531C292.336 373.531 292.57 373.637 292.746 373.849C292.926 374.057 293.016 374.333 293.016 374.677C293.016 375.021 292.926 375.299 292.746 375.511C292.57 375.719 292.336 375.823 292.044 375.823ZM294.576 373.567H295.038L292.17 377.767H291.708L294.576 373.567ZM292.044 375.481C292.228 375.481 292.372 375.411 292.476 375.271C292.58 375.127 292.632 374.929 292.632 374.677C292.632 374.425 292.58 374.229 292.476 374.089C292.372 373.945 292.228 373.873 292.044 373.873C291.864 373.873 291.72 373.945 291.612 374.089C291.508 374.233 291.456 374.429 291.456 374.677C291.456 374.925 291.508 375.121 291.612 375.265C291.72 375.409 291.864 375.481 292.044 375.481ZM294.702 377.803C294.41 377.803 294.174 377.699 293.994 377.491C293.818 377.279 293.73 377.001 293.73 376.657C293.73 376.313 293.818 376.037 293.994 375.829C294.174 375.617 294.41 375.511 294.702 375.511C294.994 375.511 295.23 375.617 295.41 375.829C295.59 376.041 295.68 376.317 295.68 376.657C295.68 376.997 295.59 377.273 295.41 377.485C295.23 377.697 294.994 377.803 294.702 377.803ZM294.702 377.461C294.882 377.461 295.024 377.389 295.128 377.245C295.236 377.101 295.29 376.905 295.29 376.657C295.29 376.409 295.236 376.213 295.128 376.069C295.024 375.925 294.882 375.853 294.702 375.853C294.518 375.853 294.374 375.925 294.27 376.069C294.166 376.209 294.114 376.405 294.114 376.657C294.114 376.909 294.166 377.107 294.27 377.251C294.374 377.391 294.518 377.461 294.702 377.461Z" fill="#FEA02F"/>
<path d="M314.046 363.771C314.61 363.771 315.044 363.953 315.348 364.317C315.656 364.681 315.81 365.197 315.81 365.865C315.81 366.333 315.726 366.733 315.558 367.065C315.394 367.393 315.162 367.643 314.862 367.815C314.566 367.983 314.22 368.067 313.824 368.067C313.62 368.067 313.428 368.047 313.248 368.007C313.068 367.963 312.912 367.901 312.78 367.821L313.008 367.353C313.212 367.485 313.482 367.551 313.818 367.551C314.254 367.551 314.594 367.417 314.838 367.149C315.086 366.877 315.21 366.483 315.21 365.967V365.817C315.09 365.997 314.924 366.135 314.712 366.231C314.5 366.323 314.262 366.369 313.998 366.369C313.722 366.369 313.474 366.317 313.254 366.213C313.038 366.109 312.868 365.961 312.744 365.769C312.624 365.573 312.564 365.349 312.564 365.097C312.564 364.833 312.628 364.601 312.756 364.401C312.888 364.201 313.066 364.047 313.29 363.939C313.514 363.827 313.766 363.771 314.046 363.771ZM314.1 365.883C314.288 365.883 314.456 365.847 314.604 365.775C314.752 365.703 314.866 365.605 314.946 365.481C315.03 365.357 315.072 365.219 315.072 365.067C315.072 364.919 315.032 364.785 314.952 364.665C314.876 364.541 314.762 364.443 314.61 364.371C314.462 364.295 314.282 364.257 314.07 364.257C313.794 364.257 313.57 364.331 313.398 364.479C313.23 364.627 313.146 364.825 313.146 365.073C313.146 365.321 313.232 365.519 313.404 365.667C313.576 365.811 313.808 365.883 314.1 365.883ZM320.041 366.987H319.243V368.019H318.661V366.987H316.327V366.567L318.475 363.819H319.123L317.065 366.471H318.679V365.559H319.243V366.471H320.041V366.987ZM321.131 366.075C320.839 366.075 320.603 365.969 320.423 365.757C320.243 365.545 320.153 365.269 320.153 364.929C320.153 364.589 320.243 364.313 320.423 364.101C320.603 363.889 320.839 363.783 321.131 363.783C321.423 363.783 321.657 363.889 321.833 364.101C322.013 364.309 322.103 364.585 322.103 364.929C322.103 365.273 322.013 365.551 321.833 365.763C321.657 365.971 321.423 366.075 321.131 366.075ZM323.663 363.819H324.125L321.257 368.019H320.795L323.663 363.819ZM321.131 365.733C321.315 365.733 321.459 365.663 321.563 365.523C321.667 365.379 321.719 365.181 321.719 364.929C321.719 364.677 321.667 364.481 321.563 364.341C321.459 364.197 321.315 364.125 321.131 364.125C320.951 364.125 320.807 364.197 320.699 364.341C320.595 364.485 320.543 364.681 320.543 364.929C320.543 365.177 320.595 365.373 320.699 365.517C320.807 365.661 320.951 365.733 321.131 365.733ZM323.789 368.055C323.497 368.055 323.261 367.951 323.081 367.743C322.905 367.531 322.817 367.253 322.817 366.909C322.817 366.565 322.905 366.289 323.081 366.081C323.261 365.869 323.497 365.763 323.789 365.763C324.081 365.763 324.317 365.869 324.497 366.081C324.677 366.293 324.767 366.569 324.767 366.909C324.767 367.249 324.677 367.525 324.497 367.737C324.317 367.949 324.081 368.055 323.789 368.055ZM323.789 367.713C323.969 367.713 324.111 367.641 324.215 367.497C324.323 367.353 324.377 367.157 324.377 366.909C324.377 366.661 324.323 366.465 324.215 366.321C324.111 366.177 323.969 366.105 323.789 366.105C323.605 366.105 323.461 366.177 323.357 366.321C323.253 366.461 323.201 366.657 323.201 366.909C323.201 367.161 323.253 367.359 323.357 367.503C323.461 367.643 323.605 367.713 323.789 367.713Z" fill="#10375E"/>
<g filter="url(#filter1_d)">
<rect x="287.396" y="82" width="191" height="159" rx="8" fill="white"/>
</g>
<path d="M310.396 222H456.396" stroke="#C4C4C4"/>
<path d="M310.396 214H456.396" stroke="#C4C4C4"/>
<path d="M310.396 206H456.396" stroke="#C4C4C4"/>
<path d="M310.396 198H456.396" stroke="#C4C4C4"/>
<path d="M310.396 190H456.396" stroke="#C4C4C4"/>
<path d="M310.396 182H456.396" stroke="#C4C4C4"/>
<path d="M310.396 174H456.396" stroke="#C4C4C4"/>
<path d="M310.396 166H456.396" stroke="#C4C4C4"/>
<path d="M310.396 158H456.396" stroke="#C4C4C4"/>
<path d="M310.396 150H456.396" stroke="#C4C4C4"/>
<path d="M310.396 142H456.396" stroke="#C4C4C4"/>
<path d="M310.396 134H456.396" stroke="#C4C4C4"/>
<path d="M310.396 126H456.396" stroke="#C4C4C4"/>
<path d="M310.396 118H456.396" stroke="#C4C4C4"/>
<path d="M310.396 110H456.396" stroke="#C4C4C4"/>
<path d="M310.396 102H456.396" stroke="#C4C4C4"/>
<path d="M338.396 153L327.396 222H349.396L338.396 153Z" fill="#FEA02F"/>
<path d="M360.896 114L372.396 222H349.396L360.896 114Z" fill="#007A7A"/>
<path d="M393.396 222H372.396L382.558 187L393.396 222Z" fill="#003F5A"/>
<path d="M404.021 122L394.396 222H416.396L404.021 122Z" fill="#DE6600"/>
<path d="M425.81 176L416.396 222H437.396L425.81 176Z" fill="#6DB8BB"/>
<circle cx="156.396" cy="607" r="96.3406" stroke="#6DB8BB" stroke-width="2"/>
<circle cx="156.396" cy="607" r="76.7875" stroke="#6DB8BB" stroke-width="2"/>
<circle cx="156.396" cy="607" r="115.894" stroke="#6DB8BB" stroke-width="2"/>
<circle cx="156.396" cy="607" r="135.447" stroke="#6DB8BB" stroke-width="2"/>
<circle cx="156.396" cy="607" r="155" stroke="#6DB8BB" stroke-width="2"/>
<g filter="url(#filter2_d)">
<rect x="435.396" y="423" width="191" height="159" rx="8" fill="white"/>
</g>
<circle cx="490.396" cy="455" r="6" fill="#E0E5DA"/>
<circle cx="490.396" cy="471" r="6" fill="#E0E5DA"/>
<circle cx="490.396" cy="487" r="6" fill="#E0E5DA"/>
<circle cx="490.396" cy="503" r="6" fill="#E0E5DA"/>
<circle cx="490.396" cy="519" r="6" fill="#003F5A"/>
<circle cx="490.396" cy="535" r="6" fill="#003F5A"/>
<circle cx="490.396" cy="551" r="6" fill="#003F5A"/>
<circle cx="506.396" cy="455" r="6" fill="#E0E5DA"/>
<circle cx="506.396" cy="471" r="6" fill="#E0E5DA"/>
<circle cx="506.396" cy="487" r="6" fill="#FEA02F"/>
<circle cx="506.396" cy="503" r="6" fill="#FEA02F"/>
<circle cx="506.396" cy="519" r="6" fill="#FEA02F"/>
<circle cx="506.396" cy="535" r="6" fill="#FEA02F"/>
<circle cx="506.396" cy="551" r="6" fill="#FEA02F"/>
<circle cx="522.396" cy="455" r="6" fill="#E0E5DA"/>
<circle cx="522.396" cy="471" r="6" fill="#E0E5DA"/>
<circle cx="522.396" cy="487" r="6" fill="#E0E5DA"/>
<circle cx="522.396" cy="503" r="6" fill="#E0E5DA"/>
<circle cx="522.396" cy="519" r="6" fill="#E0E5DA"/>
<circle cx="522.396" cy="535" r="6" fill="#007A7A"/>
<circle cx="522.396" cy="551" r="6" fill="#007A7A"/>
<circle cx="538.396" cy="455" r="6" fill="#E0E5DA"/>
<circle cx="538.396" cy="471" r="6" fill="#6DB8BB"/>
<circle cx="538.396" cy="487" r="6" fill="#6DB8BB"/>
<circle cx="538.396" cy="503" r="6" fill="#6DB8BB"/>
<circle cx="538.396" cy="519" r="6" fill="#6DB8BB"/>
<circle cx="538.396" cy="535" r="6" fill="#6DB8BB"/>
<circle cx="538.396" cy="551" r="6" fill="#6DB8BB"/>
<circle cx="554.396" cy="455" r="6" fill="#E0E5DA"/>
<circle cx="554.396" cy="471" r="6" fill="#E0E5DA"/>
<circle cx="554.396" cy="487" r="6" fill="#E0E5DA"/>
<circle cx="554.396" cy="503" r="6" fill="#DE6600"/>
<circle cx="554.396" cy="519" r="6" fill="#DE6600"/>
<circle cx="554.396" cy="535" r="6" fill="#DE6600"/>
<circle cx="554.396" cy="551" r="6" fill="#DE6600"/>
<circle cx="570.396" cy="455" r="6" fill="#E0E5DA"/>
<circle cx="570.396" cy="471" r="6" fill="#E0E5DA"/>
<circle cx="570.396" cy="487" r="6" fill="#E0E5DA"/>
<circle cx="570.396" cy="503" r="6" fill="#E0E5DA"/>
<circle cx="570.396" cy="519" r="6" fill="#E0E5DA"/>
<circle cx="570.396" cy="535" r="6" fill="#EBD9C8"/>
<circle cx="570.396" cy="551" r="6" fill="#EBD9C8"/>
<defs>
<filter id="filter0_d" x="143.396" y="309" width="221" height="185" filterUnits="userSpaceOnUse" color-interpolation-filters="sRGB">
<feFlood flood-opacity="0" result="BackgroundImageFix"/>
<feColorMatrix in="SourceAlpha" type="matrix" values="0 0 0 0 0 0 0 0 0 0 0 0 0 0 0 0 0 0 127 0"/>
<feOffset/>
<feGaussianBlur stdDeviation="7.5"/>
<feColorMatrix type="matrix" values="0 0 0 0 0 0 0 0 0 0 0 0 0 0 0 0 0 0 0.25 0"/>
<feBlend mode="normal" in2="BackgroundImageFix" result="effect1_dropShadow"/>
<feBlend mode="normal" in="SourceGraphic" in2="effect1_dropShadow" result="shape"/>
</filter>
<filter id="filter1_d" x="272.396" y="67" width="221" height="189" filterUnits="userSpaceOnUse" color-interpolation-filters="sRGB">
<feFlood flood-opacity="0" result="BackgroundImageFix"/>
<feColorMatrix in="SourceAlpha" type="matrix" values="0 0 0 0 0 0 0 0 0 0 0 0 0 0 0 0 0 0 127 0"/>
<feOffset/>
<feGaussianBlur stdDeviation="7.5"/>
<feColorMatrix type="matrix" values="0 0 0 0 0 0 0 0 0 0 0 0 0 0 0 0 0 0 0.25 0"/>
<feBlend mode="normal" in2="BackgroundImageFix" result="effect1_dropShadow"/>
<feBlend mode="normal" in="SourceGraphic" in2="effect1_dropShadow" result="shape"/>
</filter>
<filter id="filter2_d" x="420.396" y="408" width="221" height="189" filterUnits="userSpaceOnUse" color-interpolation-filters="sRGB">
<feFlood flood-opacity="0" result="BackgroundImageFix"/>
<feColorMatrix in="SourceAlpha" type="matrix" values="0 0 0 0 0 0 0 0 0 0 0 0 0 0 0 0 0 0 127 0"/>
<feOffset/>
<feGaussianBlur stdDeviation="7.5"/>
<feColorMatrix type="matrix" values="0 0 0 0 0 0 0 0 0 0 0 0 0 0 0 0 0 0 0.25 0"/>
<feBlend mode="normal" in2="BackgroundImageFix" result="effect1_dropShadow"/>
<feBlend mode="normal" in="SourceGraphic" in2="effect1_dropShadow" result="shape"/>
</filter>
<linearGradient id="paint0_linear" x1="602.396" y1="374" x2="206.896" y2="693" gradientUnits="userSpaceOnUse">
<stop stop-color="#5DADB0"/>
<stop offset="1" stop-color="white" stop-opacity="0"/>
</linearGradient>
<linearGradient id="paint1_linear" x1="475.61" y1="0" x2="475.61" y2="501.537" gradientUnits="userSpaceOnUse">
<stop stop-color="#6DB8BB"/>
<stop offset="1" stop-color="#05647A"/>
</linearGradient>
</defs>
</svg>